<?xml version="1.0" encoding="utf-8"?>
<!-- Generator: Adobe Illustrator 18.1.1, SVG Export Plug-In . SVG Version: 6.00 Build 0)  -->
<svg version="1.1" xmlns="http://www.w3.org/2000/svg" xmlns:xlink="http://www.w3.org/1999/xlink" x="0px" y="0px"
	 viewBox="0 0 100 100" enable-background="new 0 0 100 100" xml:space="preserve">
<g id="saved_photos">
	<path fill="#FFFFFF" d="M33.3,54.3c1.4,1.4,2.3,4.2,2,6.2l-1.6,9.6c-0.3,1.6,0.2,2.5,0.6,3c0.8,1,2.4,1.1,3.9,0.3l8.6-4.5
		c1.7-0.9,4.8-0.9,6.5,0l8.6,4.5c0.7,0.4,1.4,0.6,2,0.6c0.8,0,1.5-0.3,1.9-0.9c0.4-0.5,0.9-1.4,0.6-3l-1.6-9.6c-0.3-2,0.6-4.8,2-6.2
		l7-6.8c1.5-1.5,1.4-2.7,1.2-3.3c-0.2-0.6-0.8-1.7-2.9-2l-9.6-1.4c-2-0.3-4.4-2-5.2-3.8l-4.3-8.8C51.9,26.3,50.7,26,50,26
		c-0.7,0-1.9,0.3-2.8,2.1l-4.3,8.8c-0.9,1.8-3.3,3.5-5.2,3.8L28,42.2c-2.1,0.3-2.7,1.4-2.9,2c-0.2,0.6-0.3,1.9,1.2,3.3L33.3,54.3z
		 M27.1,44.8c0.1-0.2,0.5-0.5,1.2-0.6l9.6-1.4c2.6-0.4,5.6-2.6,6.8-5l4.3-8.8c0.7-1.4,1.2-1.4,1.9,0l4.3,8.8c1.2,2.4,4.2,4.6,6.8,5
		l9.6,1.4c0.7,0.1,1.1,0.4,1.2,0.6c0.1,0.2-0.1,0.7-0.6,1.2l-7,6.8c-1.9,1.9-3.1,5.4-2.6,8l1.6,9.6c0.1,0.7,0,1.1-0.1,1.3
		c-0.1,0.1-0.6,0.2-1.4-0.2L54.2,67c-1.1-0.6-2.6-0.9-4.2-0.9c-1.6,0-3.1,0.3-4.2,0.9l-8.6,4.5c-0.7,0.4-1.3,0.3-1.4,0.2
		c-0.1-0.2-0.2-0.6-0.1-1.3l1.6-9.6c0.5-2.6-0.7-6.2-2.6-8l-7-6.8C27.2,45.5,27,45,27.1,44.8z"/>
</g>
</svg>
