<?xml version="1.0" encoding="utf-8"?>
<!-- Generator: Adobe Illustrator 18.1.1, SVG Export Plug-In . SVG Version: 6.00 Build 0)  -->
<svg version="1.1" xmlns="http://www.w3.org/2000/svg" xmlns:xlink="http://www.w3.org/1999/xlink" x="0px" y="0px"
	 viewBox="0 0 100 100" enable-background="new 0 0 100 100" xml:space="preserve">
<g id="tag">
	<path fill="#FFFFFF" d="M36.9,34.5v16h-16v-16H36.9 M37.9,33.5h-18v18h18V33.5L37.9,33.5z"/>
	<path fill="#FFFFFF" d="M57.9,34.5v16h-16v-16H57.9 M58.9,33.5h-18v18h18V33.5L58.9,33.5z"/>
	<path fill="#FFFFFF" d="M78.9,34.5v16h-16v-16H78.9 M79.9,33.5h-18v18h18V33.5L79.9,33.5z"/>
	<path fill="#FFFFFF" d="M36.9,55.5v16h-16v-16H36.9 M37.9,54.5h-18v18h18V54.5L37.9,54.5z"/>
	<path fill="#FFFFFF" d="M57.9,55.5v16h-16v-16H57.9 M58.9,54.5h-18v18h18V54.5L58.9,54.5z"/>
	<path fill="#FFFFFF" d="M78.9,55.5v16h-16v-16H78.9 M79.9,54.5h-18v18h18V54.5L79.9,54.5z"/>
	<rect x="19.9" y="27.5" fill="#FFFFFF" width="18" height="3"/>
</g>
</svg>
