<?xml version="1.0" encoding="utf-8"?>
<!-- Generator: Adobe Illustrator 18.1.1, SVG Export Plug-In . SVG Version: 6.00 Build 0)  -->
<svg version="1.1" xmlns="http://www.w3.org/2000/svg" xmlns:xlink="http://www.w3.org/1999/xlink" x="0px" y="0px"
	 viewBox="0 0 100 100" enable-background="new 0 0 100 100" xml:space="preserve">
<g id="Layer_6">
	<g>
		<path fill="#FFFFFF" d="M21.3,69.2c-0.2-0.1-0.5-0.1-0.7,0.2c-0.1,0.2-0.1,0.5,0.2,0.7c0.1,0,0.2,0.1,0.3,0.1
			c0.2,0,0.3-0.1,0.4-0.2C21.6,69.6,21.5,69.3,21.3,69.2z"/>
		<path fill="#FFFFFF" d="M15.9,54.5c-0.2-0.1-0.5-0.1-0.7,0.1c-0.2,0.2-0.1,0.5,0.1,0.7c0.1,0.1,0.2,0.1,0.3,0.1
			c0.2,0,0.3-0.1,0.4-0.2C16.2,55,16.2,54.6,15.9,54.5z"/>
		<path fill="#FFFFFF" d="M19.7,50.4c-0.2,0.2-0.3,0.5-0.1,0.7c0.1,0.1,0.2,0.2,0.4,0.2c0.1,0,0.2,0,0.3-0.1
			c0.2-0.2,0.3-0.5,0.1-0.7C20.2,50.3,19.9,50.2,19.7,50.4z"/>
		<path fill="#FFFFFF" d="M18.2,67.6c-0.2,0.2-0.1,0.5,0.1,0.7c0.1,0.1,0.2,0.1,0.3,0.1c0.1,0,0.3-0.1,0.4-0.2
			c0.2-0.2,0.1-0.5-0.1-0.7C18.7,67.3,18.3,67.4,18.2,67.6z"/>
		<path fill="#FFFFFF" d="M18,52.3c-0.2-0.2-0.5-0.2-0.7,0c-0.2,0.2-0.2,0.5,0,0.7c0.1,0.1,0.2,0.2,0.4,0.2s0.2,0,0.3-0.1
			C18.2,52.8,18.2,52.5,18,52.3z"/>
		<path fill="#FFFFFF" d="M16.1,65.5c-0.2,0.2-0.2,0.5-0.1,0.7c0.1,0.1,0.2,0.2,0.4,0.2c0.1,0,0.2,0,0.3-0.1c0.2-0.2,0.2-0.5,0-0.7
			C16.6,65.3,16.3,65.3,16.1,65.5z"/>
		<path fill="#FFFFFF" d="M23.8,70.6c-0.2-0.1-0.5,0-0.7,0.2c-0.1,0.2,0,0.6,0.2,0.7c0.1,0,0.1,0.1,0.2,0.1c0.2,0,0.4-0.1,0.5-0.3
			C24.2,71,24.1,70.7,23.8,70.6z"/>
		<path fill="#FFFFFF" d="M29.3,72.8c-0.3-0.1-0.5,0.1-0.6,0.3c-0.1,0.3,0.1,0.5,0.3,0.6c0.1,0,0.1,0,0.2,0c0.2,0,0.4-0.1,0.5-0.3
			C29.7,73.1,29.6,72.8,29.3,72.8z"/>
		<path fill="#FFFFFF" d="M22.3,48.8c-0.2,0.1-0.3,0.4-0.2,0.7c0.1,0.2,0.3,0.3,0.4,0.3c0.1,0,0.2,0,0.2-0.1
			c0.2-0.1,0.3-0.4,0.2-0.7C22.8,48.8,22.5,48.7,22.3,48.8z"/>
		<path fill="#FFFFFF" d="M70.8,72.6c-0.3,0.1-0.4,0.4-0.3,0.6c0.1,0.2,0.3,0.3,0.5,0.3c0.1,0,0.1,0,0.2,0c0.3-0.1,0.4-0.4,0.3-0.6
			C71.3,72.7,71,72.5,70.8,72.6z"/>
		<path fill="#FFFFFF" d="M14.6,62.9c-0.2,0.1-0.4,0.4-0.2,0.7c0.1,0.2,0.3,0.3,0.5,0.3c0.1,0,0.1,0,0.2,0c0.2-0.1,0.3-0.4,0.2-0.7
			C15.1,62.9,14.8,62.8,14.6,62.9z"/>
		<path fill="#FFFFFF" d="M26.5,71.8c-0.3-0.1-0.5,0-0.7,0.3c-0.1,0.2,0,0.5,0.3,0.6v0c0,0,0.1,0,0.2,0c0.2,0,0.4-0.1,0.5-0.3
			C26.9,72.2,26.8,71.9,26.5,71.8z"/>
		<path fill="#FFFFFF" d="M30.8,46.4c0,0,0.1,0,0.2,0c0,0,0,0,0,0c0.3-0.1,0.4-0.4,0.3-0.6c-0.1-0.3-0.4-0.4-0.6-0.3
			c-0.3,0.1-0.4,0.4-0.3,0.6C30.4,46.3,30.6,46.4,30.8,46.4z"/>
		<polygon fill="#FFFFFF" points="51.4,42.8 51.5,42.8 51.5,42.8 		"/>
		<path fill="#FFFFFF" d="M62.8,44.4c0,0.3,0.1,0.5,0.4,0.6c0,0,0.1,0,0.1,0c0.2,0,0.5-0.2,0.5-0.4c0-0.3-0.1-0.5-0.4-0.6
			C63.1,43.9,62.9,44.1,62.8,44.4z"/>
		<path fill="#FFFFFF" d="M59.9,43.9c0,0.3,0.2,0.5,0.4,0.6c0,0,0,0,0.1,0c0.2,0,0.5-0.2,0.5-0.4c0-0.3-0.2-0.5-0.4-0.6
			C60.2,43.5,59.9,43.7,59.9,43.9z"/>
		<path fill="#FFFFFF" d="M53.9,43.4c0,0.3,0.2,0.5,0.5,0.5c0,0,0,0,0,0c0.3,0,0.5-0.2,0.5-0.5c0-0.3-0.2-0.5-0.5-0.5
			C54.2,42.9,53.9,43.1,53.9,43.4z"/>
		<path fill="#FFFFFF" d="M65.8,44.9c-0.1,0.3,0.1,0.5,0.4,0.6c0,0,0.1,0,0.1,0c0.2,0,0.4-0.2,0.5-0.4c0.1-0.3-0.1-0.5-0.4-0.6h0
			C66.1,44.5,65.8,44.7,65.8,44.9z"/>
		<path fill="#FFFFFF" d="M74.6,48.2c0.1,0,0.1,0,0.2,0c0.2,0,0.4-0.1,0.5-0.3c0.1-0.2,0-0.6-0.3-0.7c-0.2-0.1-0.5,0-0.6,0.3
			C74.2,47.8,74.3,48.1,74.6,48.2z"/>
		<path fill="#FFFFFF" d="M69,46.3c0,0,0.1,0,0.1,0c0.2,0,0.4-0.1,0.5-0.4c0.1-0.3-0.1-0.5-0.3-0.6c-0.3-0.1-0.5,0.1-0.6,0.4
			C68.6,45.9,68.7,46.2,69,46.3z"/>
		<path fill="#FFFFFF" d="M71.8,47.1c0,0,0.1,0,0.2,0c0.2,0,0.4-0.1,0.5-0.3c0.1-0.3,0-0.5-0.3-0.6c-0.3-0.1-0.6,0-0.6,0.3
			C71.4,46.8,71.6,47.1,71.8,47.1z"/>
		<path fill="#FFFFFF" d="M73.5,71.6c-0.3,0.1-0.4,0.4-0.3,0.6c0.1,0.2,0.3,0.3,0.5,0.3c0.1,0,0.1,0,0.2,0c0.2-0.1,0.4-0.4,0.3-0.7
			C74.1,71.6,73.8,71.5,73.5,71.6z"/>
		<path fill="#FFFFFF" d="M39,44.1c0,0.2,0.2,0.4,0.5,0.4c0,0,0,0,0.1,0c0.3,0,0.5-0.3,0.4-0.6c0-0.3-0.3-0.5-0.6-0.4
			C39.2,43.6,39,43.9,39,44.1z"/>
		<path fill="#FFFFFF" d="M25,47.5c-0.3,0.1-0.4,0.4-0.3,0.7c0.1,0.2,0.3,0.3,0.5,0.3c0.1,0,0.1,0,0.2-0.1c0.2-0.1,0.4-0.4,0.3-0.7
			C25.5,47.5,25.2,47.4,25,47.5z"/>
		<path fill="#FFFFFF" d="M36.1,44.6c0,0.2,0.2,0.4,0.5,0.4c0,0,0.1,0,0.1,0c0.3,0,0.4-0.3,0.4-0.6c0-0.3-0.3-0.5-0.6-0.4
			C36.2,44.1,36.1,44.4,36.1,44.6z"/>
		<path fill="#FFFFFF" d="M27.5,47c0.1,0.2,0.3,0.3,0.5,0.3c0.1,0,0.1,0,0.2,0c0.3-0.1,0.4-0.4,0.3-0.6c-0.1-0.3-0.4-0.4-0.6-0.3
			C27.5,46.5,27.4,46.8,27.5,47z"/>
		<path fill="#FFFFFF" d="M42,43.8c0,0.3,0.2,0.5,0.5,0.5c0,0,0,0,0.1,0c0.3,0,0.5-0.3,0.4-0.6c0-0.3-0.3-0.5-0.5-0.4
			C42.2,43.2,42,43.5,42,43.8z"/>
		<path fill="#FFFFFF" d="M48,43.4c0,0.3,0.2,0.5,0.5,0.5c0,0,0,0,0,0c0.3,0,0.5-0.2,0.5-0.5c0-0.3-0.2-0.5-0.5-0.5
			C48.2,42.9,48,43.1,48,43.4z"/>
		<path fill="#FFFFFF" d="M50.9,43.3c0,0.3,0.2,0.5,0.5,0.5h0c0.3,0,0.5-0.2,0.5-0.5c0-0.3-0.2-0.5-0.5-0.5
			C51.2,42.8,50.9,43.1,50.9,43.3z"/>
		<path fill="#FFFFFF" d="M45,43.5c0,0.3,0.2,0.5,0.5,0.5c0,0,0,0,0,0c0.3,0,0.5-0.2,0.5-0.5c0-0.3-0.2-0.5-0.5-0.5
			C45.2,43,45,43.2,45,43.5z"/>
		<path fill="#FFFFFF" d="M78.8,69c-0.2,0.1-0.3,0.4-0.2,0.7c0.1,0.1,0.3,0.2,0.4,0.2c0.1,0,0.2,0,0.3-0.1c0.2-0.1,0.3-0.5,0.2-0.7
			C79.3,68.9,79,68.8,78.8,69z"/>
		<path fill="#FFFFFF" d="M79.6,50.3c-0.2,0.2-0.1,0.5,0.1,0.7c0.1,0.1,0.2,0.1,0.3,0.1c0.2,0,0.3-0.1,0.4-0.2
			c0.2-0.2,0.1-0.5-0.1-0.7C80.1,50,79.8,50.1,79.6,50.3z"/>
		<path fill="#FFFFFF" d="M81.2,67.3c-0.2,0.2-0.2,0.5-0.1,0.7c0.1,0.1,0.2,0.2,0.4,0.2c0.1,0,0.2,0,0.3-0.1
			c0.2-0.2,0.2-0.5,0.1-0.7C81.7,67.1,81.4,67.1,81.2,67.3z"/>
		<path fill="#FFFFFF" d="M77.7,48.6c-0.2-0.1-0.5,0-0.7,0.2c-0.1,0.2,0,0.5,0.2,0.7c0.1,0,0.2,0.1,0.2,0.1c0.2,0,0.4-0.1,0.4-0.3
			C78,49,77.9,48.7,77.7,48.6z"/>
		<path fill="#FFFFFF" d="M76.2,70.4c-0.2,0.1-0.4,0.4-0.2,0.7c0.1,0.2,0.3,0.3,0.5,0.3c0.1,0,0.1,0,0.2-0.1h0
			c0.2-0.1,0.4-0.4,0.2-0.7C76.8,70.4,76.5,70.3,76.2,70.4z"/>
		<path fill="#FFFFFF" d="M84.7,54.4c-0.2-0.2-0.5-0.3-0.7-0.1c-0.2,0.2-0.3,0.5-0.1,0.7c0.1,0.1,0.2,0.2,0.4,0.2
			c0.1,0,0.2,0,0.3-0.1C84.8,54.9,84.9,54.6,84.7,54.4z"/>
		<path fill="#FFFFFF" d="M85.4,62.6c-0.2-0.1-0.5,0-0.7,0.2c-0.1,0.2,0,0.6,0.2,0.7c0.1,0,0.1,0,0.2,0c0.2,0,0.4-0.1,0.5-0.3
			C85.8,63,85.7,62.8,85.4,62.6z"/>
		<path fill="#FFFFFF" d="M82,52.1c-0.2,0.2-0.2,0.5,0,0.7c0.1,0.1,0.2,0.1,0.3,0.1c0.1,0,0.3,0,0.4-0.2c0.2-0.2,0.2-0.5,0-0.7
			C82.5,51.9,82.2,51.9,82,52.1z"/>
		<path fill="#FFFFFF" d="M83.2,65.3c-0.2,0.2-0.2,0.5,0,0.7c0.1,0.1,0.2,0.1,0.3,0.1c0.1,0,0.3-0.1,0.4-0.2
			c0.2-0.2,0.2-0.5-0.1-0.7C83.7,65,83.4,65,83.2,65.3z"/>
		<path fill="#FFFFFF" d="M69.7,53.2l-0.5-1.9c-0.4-1.3-0.9-2-1.6-2c0,0,0,0,0,0c-0.7,0-1.2,0.7-1.6,1.9l-0.2,0.6
			c-1.1-0.3-2.2-0.6-3.4-0.8l-3.2-8.5c-0.6-1.6-1.4-1.9-1.9-1.9c0,0,0,0,0,0c-0.4,0-1.3,0.2-1.9,1.9l-2,5.5l-9.1-3.3
			c-1.2-0.4-2.3-0.3-3.1,0.3c-0.8,0.6-1.3,1.6-1.3,2.8v2.9c-0.8,0.1-1.6,0.3-2.3,0.4l-1.3-4.6c-0.4-1.3-0.9-2-1.6-2c0,0,0,0,0,0
			c-0.7,0-1.2,0.6-1.6,1.9l-1.9,6.4c-4.5,1.7-7.2,4.1-7.2,6.7c0,5.3,11.3,9.5,25.7,9.5l0.3,0c14.5-0.1,25.9-4.3,25.9-9.7
			C75.9,57,73.6,54.9,69.7,53.2z M49.7,68.1c-13.3,0-24.6-3.9-24.7-8.5c0-2.1,2.2-4,5.8-5.5l-1.2,4c-0.1,0.3,0.1,0.5,0.3,0.6
			c0.3,0.1,0.5-0.1,0.6-0.3l0-0.1l1.4-4.6l0.2-0.6l0.2-0.6l1.7-5.7c0.3-1.1,0.6-1.2,0.6-1.2c0,0,0.3,0.1,0.6,1.2l1.3,4.6l0.1,0.5
			l0.1,0.5l1.8,6.3l0,0.2c0.1,0.2,0.3,0.4,0.5,0.4c0,0,0.1,0,0.1,0c0.3-0.1,0.4-0.3,0.3-0.6L38,52.1c0.7-0.1,1.4-0.3,2.1-0.4v3.1
			c0,0.3,0.2,0.5,0.5,0.5c0.3,0,0.5-0.2,0.5-0.5v-0.1v-3.1v-0.5v-0.5v-2.8c0-0.9,0.3-1.6,0.9-2c0.6-0.4,1.4-0.5,2.2-0.1l9.1,3.3
			l-0.4,1l-0.2,0.5L52.5,51l-0.2,0.6l-3.6,9.8c-0.1,0.3,0,0.5,0.3,0.6c0.1,0,0.1,0,0.2,0c0.2,0,0.4-0.1,0.5-0.3l0.1-0.2l3.8-10.3
			l0.1-0.2l0.2-0.5l0.2-0.5l0.3-0.7l0.2-0.5l0.2-0.5l2-5.5c0.3-0.8,0.7-1.2,0.9-1.2h0c0.2,0,0.6,0.4,0.9,1.2l3,7.9l0.2,0.6l0.2,0.6
			L64,58l0.4,1.1l0.9,2.4l0.1,0.2c0.1,0.3,0.4,0.4,0.6,0.3c0.3-0.1,0.4-0.4,0.3-0.6l-1-2.7L65.1,58l1.4-4.9l0.1-0.5l0.1-0.5l0.2-0.6
			c0.3-1.1,0.6-1.2,0.6-1.2c0,0,0.3,0.2,0.6,1.2l0.3,1.2l0.2,0.6l0.2,0.6l1.3,4.7l0,0.1c0.1,0.3,0.3,0.4,0.6,0.3
			c0.3-0.1,0.4-0.4,0.3-0.6l-1.1-4c3,1.4,4.8,3.1,4.8,5c0,4.7-11.4,8.6-24.9,8.7L49.7,68.1z M65.6,52.8l-1.1,3.6l-1.6-4.3
			C63.8,52.4,64.7,52.6,65.6,52.8z"/>
		<path fill="#FFFFFF" d="M24.9,32.4c0.1,0,0.3-0.1,0.4-0.2c0.2-0.2,0.2-0.5,0-0.7c-0.2-0.2-0.5-0.2-0.7,0c-0.2,0.2-0.2,0.5,0,0.7
			C24.7,32.4,24.8,32.4,24.9,32.4z"/>
		<path fill="#FFFFFF" d="M17.7,42.5c0.1,0,0.1,0,0.2,0c0.2,0,0.4-0.1,0.5-0.3c0.1-0.2,0-0.5-0.2-0.7c-0.2-0.1-0.5,0-0.7,0.2
			C17.4,42.1,17.5,42.4,17.7,42.5z"/>
		<path fill="#FFFFFF" d="M22.9,34.7c0.1,0,0.3-0.1,0.4-0.2c0.2-0.2,0.1-0.5-0.1-0.7c-0.2-0.2-0.5-0.1-0.7,0.1
			c-0.2,0.2-0.1,0.5,0.1,0.7C22.7,34.7,22.8,34.7,22.9,34.7z"/>
		<path fill="#FFFFFF" d="M14.3,54.3C14.3,54.3,14.4,54.3,14.3,54.3c0.3,0,0.5-0.2,0.6-0.4c0-0.3-0.1-0.5-0.4-0.6
			c-0.3,0-0.5,0.1-0.6,0.4C13.9,54,14,54.2,14.3,54.3z"/>
		<path fill="#FFFFFF" d="M14,57.3C14,57.3,14.1,57.3,14,57.3c0.3,0,0.5-0.2,0.5-0.5c0,0,0,0,0,0c0-0.3-0.2-0.5-0.5-0.5
			c-0.3,0-0.5,0.2-0.5,0.5C13.5,57.1,13.8,57.3,14,57.3z"/>
		<path fill="#FFFFFF" d="M14.8,51.2c0,0,0.1,0,0.1,0c0.2,0,0.4-0.2,0.5-0.4c0.1-0.3-0.1-0.5-0.4-0.6c-0.3-0.1-0.5,0.1-0.6,0.4
			C14.4,50.9,14.6,51.2,14.8,51.2z"/>
		<path fill="#FFFFFF" d="M27.1,30.3c0.1,0,0.2,0,0.3-0.1c0.2-0.2,0.2-0.5,0-0.7c-0.2-0.2-0.5-0.2-0.7,0c-0.2,0.2-0.2,0.5,0,0.7
			C26.9,30.3,27,30.3,27.1,30.3z"/>
		<path fill="#FFFFFF" d="M15.6,48.2c0,0,0.1,0,0.1,0c0.2,0,0.4-0.1,0.5-0.4c0.1-0.3-0.1-0.5-0.3-0.6c-0.3-0.1-0.5,0.1-0.6,0.3
			C15.2,47.9,15.3,48.2,15.6,48.2z"/>
		<path fill="#FFFFFF" d="M19.8,39.6c0.1-0.2,0.1-0.5-0.2-0.7c-0.2-0.1-0.6-0.1-0.7,0.2c-0.1,0.2-0.1,0.5,0.2,0.7
			c0.1,0.1,0.2,0.1,0.2,0.1C19.6,39.8,19.7,39.7,19.8,39.6z"/>
		<path fill="#FFFFFF" d="M16.9,44.4c-0.3-0.1-0.5,0-0.6,0.3c-0.1,0.3,0,0.6,0.3,0.6c0.1,0,0.1,0,0.2,0c0.2,0,0.4-0.1,0.5-0.3
			C17.3,44.8,17.2,44.5,16.9,44.4z"/>
		<path fill="#FFFFFF" d="M20.6,36.4c-0.2,0.2-0.1,0.5,0.1,0.7c0.1,0.1,0.2,0.1,0.3,0.1c0.2,0,0.3-0.1,0.4-0.2
			c0.2-0.2,0.1-0.5-0.1-0.7C21.1,36.1,20.8,36.2,20.6,36.4z"/>
		<path fill="#FFFFFF" d="M29.5,28.4c0.1,0,0.2,0,0.3-0.1c0.2-0.2,0.3-0.5,0.1-0.7c-0.2-0.2-0.5-0.3-0.7-0.1
			C29,27.6,29,28,29.1,28.2C29.2,28.3,29.4,28.4,29.5,28.4z"/>
		<path fill="#FFFFFF" d="M14.5,59.9c0-0.1,0-0.3-0.1-0.4c-0.2-0.2-0.5-0.2-0.7,0c-0.1,0.1-0.1,0.2-0.1,0.4c0,0.1,0.1,0.3,0.2,0.4
			c0.1,0.1,0.2,0.1,0.3,0.1c0.1,0,0.3-0.1,0.4-0.1C14.4,60.2,14.5,60,14.5,59.9z"/>
		<path fill="#FFFFFF" d="M86.4,59.3c-0.2-0.2-0.5-0.2-0.7,0c-0.1,0.1-0.1,0.2-0.1,0.4c0,0.1,0,0.3,0.1,0.4c0.1,0.1,0.2,0.1,0.4,0.1
			c0.1,0,0.2-0.1,0.4-0.1c0.1-0.1,0.1-0.2,0.1-0.4C86.5,59.5,86.5,59.4,86.4,59.3z"/>
		<path fill="#FFFFFF" d="M85.1,53.6c0,0.2,0.2,0.4,0.5,0.4c0,0,0,0,0.1,0c0.3-0.1,0.5-0.3,0.4-0.6c0-0.3-0.3-0.5-0.6-0.4
			C85.2,53.1,85,53.4,85.1,53.6z"/>
		<path fill="#FFFFFF" d="M84.5,50.7c0,0.2,0.3,0.4,0.5,0.4c0,0,0.1,0,0.1,0c0.3-0.1,0.4-0.3,0.4-0.6c-0.1-0.3-0.3-0.4-0.6-0.4
			C84.6,50.1,84.5,50.4,84.5,50.7z"/>
		<path fill="#FFFFFF" d="M81,39c-0.1-0.2-0.4-0.3-0.7-0.2c-0.2,0.1-0.3,0.4-0.2,0.7c0.1,0.2,0.3,0.2,0.4,0.2c0.1,0,0.2,0,0.2-0.1
			C81.1,39.6,81.1,39.3,81,39z"/>
		<path fill="#FFFFFF" d="M85.4,56.6c0,0.3,0.2,0.5,0.5,0.5c0,0,0,0,0,0c0.3,0,0.5-0.3,0.5-0.5c0-0.3-0.3-0.5-0.5-0.5
			C85.6,56.1,85.4,56.3,85.4,56.6z"/>
		<path fill="#FFFFFF" d="M75.1,32.5c0.1,0,0.2,0,0.3-0.1c0.2-0.2,0.2-0.5,0-0.7c-0.2-0.2-0.5-0.2-0.7,0c-0.2,0.2-0.2,0.5,0,0.7
			C74.8,32.5,75,32.5,75.1,32.5z"/>
		<path fill="#FFFFFF" d="M72.6,30.3c0.1,0.1,0.2,0.1,0.3,0.1c0.1,0,0.3,0,0.4-0.2c0.2-0.2,0.2-0.5,0-0.7c-0.2-0.2-0.5-0.2-0.7,0
			C72.4,29.8,72.4,30.1,72.6,30.3C72.6,30.3,72.6,30.3,72.6,30.3z"/>
		<path fill="#FFFFFF" d="M79.2,37.1c0.2-0.1,0.3-0.5,0.1-0.7c-0.2-0.2-0.5-0.3-0.7-0.1c-0.2,0.2-0.3,0.5-0.1,0.7
			c0.1,0.1,0.2,0.2,0.4,0.2C79,37.2,79.1,37.2,79.2,37.1z"/>
		<path fill="#FFFFFF" d="M83.4,45.2c0.3-0.1,0.4-0.4,0.3-0.6c-0.1-0.3-0.4-0.4-0.7-0.3c-0.3,0.1-0.4,0.4-0.3,0.6
			c0.1,0.2,0.3,0.3,0.5,0.3C83.3,45.3,83.3,45.2,83.4,45.2z"/>
		<path fill="#FFFFFF" d="M84.2,48.1c0.1,0,0.1,0,0.2,0c0.3-0.1,0.4-0.4,0.3-0.6c-0.1-0.3-0.4-0.4-0.6-0.3c-0.3,0.1-0.4,0.4-0.3,0.6
			C83.8,48,84,48.1,84.2,48.1z"/>
		<path fill="#FFFFFF" d="M70.6,28.5c0.1,0,0.3-0.1,0.4-0.2c0.2-0.2,0.1-0.5-0.1-0.7c-0.2-0.2-0.5-0.1-0.7,0.1
			c-0.2,0.2-0.1,0.5,0.1,0.7C70.3,28.4,70.5,28.5,70.6,28.5z"/>
		<path fill="#FFFFFF" d="M82,42.5c0.1,0,0.1,0,0.2-0.1c0.2-0.1,0.4-0.4,0.2-0.7s-0.4-0.4-0.7-0.2c-0.2,0.1-0.4,0.4-0.2,0.7
			C81.6,42.4,81.8,42.5,82,42.5z"/>
		<path fill="#FFFFFF" d="M77.1,34.8c0.1,0,0.2,0,0.3-0.1c0.2-0.2,0.2-0.5,0.1-0.7c-0.2-0.2-0.5-0.2-0.7-0.1
			c-0.2,0.2-0.2,0.5-0.1,0.7C76.8,34.7,77,34.8,77.1,34.8z"/>
		<path fill="#FFFFFF" d="M68.5,73.8C68.5,73.8,68.5,73.8,68.5,73.8c0-0.1,0-0.1-0.1-0.1c0,0,0-0.1-0.1-0.1c0,0,0,0,0,0c0,0,0,0,0,0
			c0,0-0.1,0-0.1-0.1c0,0,0,0-0.1,0c0,0-0.1,0-0.1,0c0,0,0,0-0.1,0c0,0-0.1,0-0.1,0l-5.1-2.7c-0.2-0.1-0.5,0-0.7,0.2
			c-0.1,0.2,0,0.5,0.2,0.7l4.1,2.2c-5.1,1.2-10.7,1.9-16.4,1.9c-5.8,0-11.5-0.6-16.6-1.8l4.3-2.3c0.2-0.1,0.3-0.4,0.2-0.7
			c-0.1-0.2-0.4-0.3-0.7-0.2l-5.4,2.9c0,0,0,0,0,0c0,0,0,0-0.1,0c0,0,0,0-0.1,0c0,0,0,0,0,0c0,0,0,0,0,0c0,0,0,0,0,0
			c0,0,0,0.1-0.1,0.1c0,0,0,0,0,0c0,0,0,0,0,0c0,0,0,0,0,0.1c0,0,0,0.1,0,0.1c0,0,0,0,0,0c0,0,0,0,0,0c0,0,0,0,0,0.1
			c0,0,0,0.1,0,0.1c0,0,0,0,0,0l2.9,5.4c0.1,0.2,0.3,0.3,0.4,0.3c0.1,0,0.2,0,0.2-0.1c0.2-0.1,0.3-0.4,0.2-0.7l-2.4-4.4
			c5.1,1.2,10.9,1.9,16.7,1.9c0.1,0,0.2,0,0.3,0c6,0,11.9-0.7,17.1-2l-2.5,4.6c-0.1,0.2,0,0.5,0.2,0.7C65,80,65,80,65.1,80
			c0.2,0,0.3-0.1,0.4-0.3l2.9-5.4c0.1-0.1,0.1-0.2,0-0.3c0,0,0-0.1,0-0.1c0,0,0,0,0,0C68.6,73.9,68.6,73.9,68.5,73.8
			C68.5,73.9,68.6,73.8,68.5,73.8z"/>
		<path fill="#FFFFFF" d="M31.6,26.2C31.6,26.2,31.6,26.2,31.6,26.2C31.6,26.3,31.6,26.3,31.6,26.2c0,0.1,0,0.1,0.1,0.2c0,0,0,0,0,0
			c0,0,0,0,0,0c0,0,0,0.1,0.1,0.1c0,0,0,0,0,0c0,0,0,0,0,0c0,0,0.1,0.1,0.1,0.1l5.7,2.4c0.1,0,0.1,0,0.2,0c0.2,0,0.4-0.1,0.5-0.3
			c0.1-0.3,0-0.5-0.3-0.7l-4.8-2c5.1-2.9,10.8-4.5,16.7-4.6c6,0,11.9,1.6,17.1,4.6l-4.8,2c-0.3,0.1-0.4,0.4-0.3,0.7
			c0.1,0.2,0.3,0.3,0.5,0.3c0.1,0,0.1,0,0.2,0l5.7-2.4l0,0c0,0,0,0,0,0c0,0,0,0,0,0c0,0,0,0,0,0c0,0,0.1,0,0.1-0.1l0,0
			c0,0,0,0,0-0.1c0,0,0,0,0,0c0,0,0,0,0,0c0,0,0,0,0-0.1c0,0,0,0,0,0c0,0,0,0,0,0c0,0,0-0.1,0-0.1c0,0,0,0,0,0c0,0,0,0,0,0
			c0,0,0,0,0,0c0,0,0,0,0,0v0v0c0,0,0,0,0,0c0,0,0-0.1,0-0.1c0,0,0,0,0,0l-2.4-5.7c-0.1-0.3-0.4-0.4-0.7-0.3
			c-0.3,0.1-0.4,0.4-0.3,0.7l1.8,4.3c-5.2-3-11.1-4.5-17-4.5c0,0-0.1,0-0.1,0c-5.8,0-11.6,1.6-16.7,4.4l1.8-4.3
			c0.1-0.3,0-0.5-0.3-0.7c-0.3-0.1-0.5,0-0.7,0.3l-2.4,5.6l0,0c0,0,0,0,0,0.1c0,0,0,0.1,0,0.1C31.6,26.1,31.6,26.1,31.6,26.2
			C31.6,26.2,31.6,26.2,31.6,26.2C31.6,26.2,31.6,26.2,31.6,26.2z"/>
	</g>
</g>
</svg>
