<?xml version="1.0" encoding="utf-8"?>
<!-- Generator: Adobe Illustrator 18.1.1, SVG Export Plug-In . SVG Version: 6.00 Build 0)  -->
<svg version="1.1" xmlns="http://www.w3.org/2000/svg" xmlns:xlink="http://www.w3.org/1999/xlink" x="0px" y="0px"
	 viewBox="0 0 100 100" enable-background="new 0 0 100 100" xml:space="preserve">
<g id="Layer_7">
	<path fill="#FFFFFF" d="M72.8,44.6L72,41.6c-0.4-1.3-0.9-1.9-1.6-1.9c0,0,0,0,0,0c-0.7,0-1.2,0.6-1.6,1.9L68.5,43
		c-1.4-0.4-3-0.8-4.6-1.1L60,31.7c-0.8-2-2-2-2.7,0l-2.6,7.1l-11.8-4.3c-1.1-0.4-2.2-0.3-3.1,0.3c-0.8,0.6-1.3,1.6-1.3,2.8v4.1
		c-1,0.1-1.9,0.3-2.9,0.5L34,36.1c-0.4-1.3-0.9-1.9-1.6-1.9c0,0,0,0,0,0c-0.7,0-1.2,0.6-1.6,1.9l-2.4,8.2c-5.2,2-8.4,4.7-8.4,7.8
		c0,6.1,13.1,10.9,29.7,10.9l0.3,0c0.8,0,1.6,0,2.4,0l4,6.7c0.1,0.2,0.3,0.2,0.4,0.2c0.1,0,0.2,0,0.3-0.1c0.2-0.1,0.2-0.3,0.2-0.4
		c0-0.1,0-0.2-0.1-0.3l-3.7-6.2l-0.3-0.5L53,61.8l-3.9-6.5c-0.6-1-0.3-2.3,0.6-3c0.1-0.1,0.2-0.1,0.2-0.2c1.1-0.7,2.5-0.3,3.2,0.8
		l0.7,1.2l1.3,2.1c0.1,0.2,0.3,0.3,0.6,0.2c0.2-0.1,0.4-0.3,0.4-0.5v-1.9V42.5c0-0.2,0-0.3,0-0.4c0-0.1,0.1-0.3,0.1-0.4
		c0,0,0,0,0-0.1c0.1-0.2,0.2-0.3,0.3-0.5c0.1-0.1,0.2-0.3,0.4-0.4c0.2-0.1,0.3-0.3,0.5-0.3c0.3-0.1,0.6-0.2,0.9-0.2c0,0,0,0,0,0
		c0.9,0,1.7,0.5,2,1.3c0.1,0.2,0.2,0.3,0.2,0.5c0,0.2,0.1,0.3,0.1,0.5v0v5.9v5.7v3.6c0,0.3,0.2,0.5,0.5,0.5c0.3,0,0.5-0.2,0.5-0.5
		v-3.6v-5.4c0.3-0.1,0.6-0.2,1-0.2c1.1,0,2,0.7,2.3,1.8v3.9v3.6c0,0.3,0.2,0.5,0.5,0.5c0.3,0,0.5-0.2,0.5-0.5v-3.6v-3.6
		c0.1-0.1,0.3-0.1,0.4-0.2c0.2,0,0.4-0.1,0.5-0.1c0,0,0,0,0.1,0c0,0,0,0,0,0c0.1,0,0.3,0,0.4,0c0.4,0.1,0.8,0.3,1.1,0.5
		c0.5,0.4,0.8,1,0.8,1.8v0.2v5c0,0.3,0.2,0.5,0.5,0.5c0.3,0,0.5-0.2,0.5-0.5v-4.7c0.3-0.2,0.6-0.2,1-0.2c1.3,0,2.3,1,2.3,2.2
		l-0.4,2.7l-0.1,0.6L73,59l-1.6,10.3c0,0,0,0.1,0,0.1c0,0.2,0.2,0.5,0.4,0.5c0.3,0,0.5-0.1,0.6-0.4L74,58.5c3.8-1.9,6-4.2,6-6.7
		C80,49,77.3,46.5,72.8,44.6z M74.2,57.2l0.3-2.1c0-1.8-1.5-3.3-3.3-3.3c-0.4,0-0.7,0.1-1,0.2c-0.1-0.4-0.2-0.8-0.5-1.2
		c-0.5-0.7-1.2-1.3-2.1-1.5l1.5-5.1l0.1-0.5l0.1-0.5l0.4-1.4c0.3-0.9,0.5-1.2,0.6-1.2c0.1,0,0.4,0.3,0.6,1.2l0.6,2.2l0.2,0.6
		l0.2,0.6l1.5,5.5l0,0.1c0.1,0.3,0.3,0.4,0.6,0.3c0.3-0.1,0.4-0.4,0.3-0.6l-1.4-4.9c3.6,1.7,5.8,3.7,5.8,6
		C79,53.7,77.2,55.6,74.2,57.2z M66.6,49.3l-2.3-6.2c1.4,0.3,2.7,0.6,3.9,0.9L66.6,49.3C66.6,49.3,66.6,49.3,66.6,49.3z M55,54.2
		L55,54.2L55,54.2L55,54.2z M48.3,55.8l3.6,6c-0.6,0-1.2,0-1.8,0l-0.3,0C33.9,61.9,21,57.5,21,52c0-2.4,2.6-4.7,7-6.5l-1.4,4.8
		c-0.1,0.3,0.1,0.5,0.3,0.6c0.3,0.1,0.5-0.1,0.6-0.3l0-0.1l1.6-5.4l0.2-0.6l0.2-0.6l2.2-7.5c0.3-0.9,0.6-1.2,0.6-1.2
		c0.1,0,0.4,0.3,0.6,1.2l1.7,6l0.1,0.5l0.1,0.5l2.1,7.4l0,0.2c0.1,0.2,0.3,0.4,0.5,0.4c0,0,0.1,0,0.1,0c0.3-0.1,0.4-0.4,0.3-0.6
		l-2.1-7.5c0.8-0.2,1.7-0.3,2.6-0.5v3.7c0,0.3,0.2,0.5,0.5,0.5c0.3,0,0.5-0.2,0.5-0.5v-0.1v-3.7V42v-0.5v-4c0-0.9,0.3-1.6,0.9-2
		c0.6-0.4,1.3-0.4,2.2-0.1l11.8,4.3l-0.4,1.2l-0.2,0.5l-0.2,0.5l-0.2,0.5L50.2,51c-0.3,0.1-0.5,0.2-0.8,0.3
		C47.8,52.2,47.3,54.3,48.3,55.8z"/>
</g>
</svg>
