<?xml version="1.0" encoding="utf-8"?>
<!-- Generator: Adobe Illustrator 18.1.1, SVG Export Plug-In . SVG Version: 6.00 Build 0)  -->
<svg version="1.1" id="Layer_1" xmlns="http://www.w3.org/2000/svg" xmlns:xlink="http://www.w3.org/1999/xlink" x="0px" y="0px"
	 viewBox="0 0 100 100" enable-background="new 0 0 100 100" xml:space="preserve">
<g id="Layer_3">
	<g>
		<path fill="#FFFFFF" d="M68.8,62.8c-0.3,0-0.7,0.1-1,0.2c-0.3-1.5-1.6-2.6-3.1-2.6h-0.1V40.9c0-0.3-0.2-0.5-0.5-0.5H41.5
			c-0.3,0-0.5,0.2-0.5,0.5V79c-0.1,0-0.2,0-0.3,0.1s-0.1,0.2-0.1,0.4c0,0.1,0.1,0.3,0.1,0.4c0.1,0.1,0.2,0.1,0.4,0.1
			c0.1,0,0.2,0,0.2-0.1c0.1,0,0.2,0.1,0.2,0.1H55l0,0l0,0c0.1,0,0.2,0,0.2-0.1l0,0l0,0c0,0,0.1,0,0.1-0.1c0,0,0,0,0.1-0.1v-0.1v-0.1
			c0,0,0,0,0-0.1l0,0v-0.1v-0.1l0,0l-7.8-13.1c-0.3-0.5-0.4-1.1-0.2-1.7c0.1-0.6,0.5-1,1-1.3c1-0.6,2.4-0.3,3,0.8l1.9,3.2
			c0.1,0.2,0.3,0.3,0.6,0.2c0.2-0.1,0.4-0.3,0.4-0.5v-13c0-1.2,1-2.2,2.2-2.2s2.2,1,2.2,2.2v5.7v8.9c0,0.3,0.2,0.5,0.5,0.5
			s0.5-0.2,0.5-0.5v-8.6c0.3-0.1,0.6-0.2,0.9-0.2c1,0,1.9,0.7,2.1,1.7v7.1c0,0.3,0.2,0.5,0.5,0.5s0.5-0.2,0.5-0.5v-6.9
			c0.3-0.2,0.6-0.3,1-0.3c1.2,0,2.2,1,2.2,2.2v0.2v4.8c0,0.3,0.2,0.5,0.5,0.5s0.5-0.2,0.5-0.5V64c0.3-0.1,0.6-0.2,0.9-0.2
			c1.2,0,2.2,1,2.2,2.1l-2.1,13.5c0,0.3,0.1,0.5,0.4,0.6c0.3,0,0.5-0.1,0.6-0.4L72,66C72,64.2,70.6,62.8,68.8,62.8z M63.6,60.5
			C63.6,60.5,63.5,60.5,63.6,60.5c-0.6-1.1-1.7-1.9-3-1.9c-0.3,0-0.6,0-0.9,0.1v-4.9c0-1.8-1.4-3.2-3.2-3.2s-3.2,1.4-3.2,3.2V65
			l-1-1.6c-0.9-1.5-2.9-2-4.4-1.1c-0.7,0.4-1.3,1.1-1.5,2c-0.2,0.8-0.1,1.7,0.3,2.4L54.2,79H42V41.4h21.6V60.5z"/>
		<path fill="#FFFFFF" d="M34.7,79c-0.3,0-0.5,0.2-0.5,0.5s0.2,0.5,0.5,0.5s0.5-0.2,0.5-0.5S35,79,34.7,79z"/>
		<path fill="#FFFFFF" d="M31.6,79c-0.3,0-0.5,0.2-0.5,0.5s0.2,0.5,0.5,0.5s0.5-0.2,0.5-0.5S31.9,79,31.6,79z"/>
		<path fill="#FFFFFF" d="M37.9,79c-0.3,0-0.5,0.2-0.5,0.5s0.2,0.5,0.5,0.5s0.5-0.2,0.5-0.5S38.1,79,37.9,79z"/>
		<path fill="#FFFFFF" d="M28.1,79.1C28,79.2,28,79.3,28,79.5c0,0.1,0.1,0.3,0.2,0.4s0.2,0.1,0.3,0.1c0.1,0,0.2-0.1,0.4-0.1
			c0.1-0.1,0.1-0.2,0.1-0.4c0-0.1,0-0.2-0.1-0.4C28.7,79,28.3,79,28.1,79.1z"/>
		<path fill="#FFFFFF" d="M28.5,55.4c-0.3,0-0.5,0.2-0.5,0.5s0.2,0.5,0.5,0.5s0.5-0.2,0.5-0.5C29,55.6,28.8,55.4,28.5,55.4z"/>
		<path fill="#FFFFFF" d="M28.5,49.5c-0.3,0-0.5,0.2-0.5,0.5s0.2,0.5,0.5,0.5S29,50.3,29,50S28.8,49.5,28.5,49.5z"/>
		<path fill="#FFFFFF" d="M28.5,58.3c-0.3,0-0.5,0.2-0.5,0.5s0.2,0.5,0.5,0.5s0.5-0.2,0.5-0.5C29,58.6,28.8,58.3,28.5,58.3z"/>
		<path fill="#FFFFFF" d="M28.5,46.5c-0.3,0-0.5,0.2-0.5,0.5s0.2,0.5,0.5,0.5S29,47.3,29,47C29,46.8,28.8,46.5,28.5,46.5z"/>
		<path fill="#FFFFFF" d="M28.5,61.3c-0.3,0-0.5,0.2-0.5,0.5s0.2,0.5,0.5,0.5s0.5-0.2,0.5-0.5S28.8,61.3,28.5,61.3z"/>
		<path fill="#FFFFFF" d="M28.5,52.4c-0.3,0-0.5,0.2-0.5,0.5s0.2,0.5,0.5,0.5s0.5-0.2,0.5-0.5C29,52.7,28.8,52.4,28.5,52.4z"/>
		<path fill="#FFFFFF" d="M28.5,64.2c-0.3,0-0.5,0.2-0.5,0.5s0.2,0.5,0.5,0.5S29,65,29,64.7C29,64.5,28.8,64.2,28.5,64.2z"/>
		<path fill="#FFFFFF" d="M28.5,73.1c-0.3,0-0.5,0.2-0.5,0.5s0.2,0.5,0.5,0.5s0.5-0.2,0.5-0.5C29,73.3,28.8,73.1,28.5,73.1z"/>
		<path fill="#FFFFFF" d="M28.5,76.1c-0.3,0-0.5,0.2-0.5,0.5s0.2,0.5,0.5,0.5s0.5-0.2,0.5-0.5C29,76.3,28.8,76.1,28.5,76.1z"/>
		<path fill="#FFFFFF" d="M28.5,67.2c-0.3,0-0.5,0.2-0.5,0.5s0.2,0.5,0.5,0.5S29,68,29,67.7C29,67.4,28.8,67.2,28.5,67.2z"/>
		<path fill="#FFFFFF" d="M28.5,70.1c-0.3,0-0.5,0.2-0.5,0.5s0.2,0.5,0.5,0.5s0.5-0.2,0.5-0.5C29,70.4,28.8,70.1,28.5,70.1z"/>
		<path fill="#FFFFFF" d="M28.5,31.8c-0.3,0-0.5,0.2-0.5,0.5s0.2,0.5,0.5,0.5s0.5-0.2,0.5-0.5S28.8,31.8,28.5,31.8z"/>
		<path fill="#FFFFFF" d="M28.5,28.8c-0.3,0-0.5,0.2-0.5,0.5s0.2,0.5,0.5,0.5s0.5-0.2,0.5-0.5C29,29.1,28.8,28.8,28.5,28.8z"/>
		<path fill="#FFFFFF" d="M28.5,25.9c-0.3,0-0.5,0.2-0.5,0.5s0.2,0.5,0.5,0.5s0.5-0.2,0.5-0.5S28.8,25.9,28.5,25.9z"/>
		<path fill="#FFFFFF" d="M28.5,22.9c-0.3,0-0.5,0.2-0.5,0.5s0.2,0.5,0.5,0.5s0.5-0.2,0.5-0.5C29,23.2,28.8,22.9,28.5,22.9z"/>
		<path fill="#FFFFFF" d="M28.5,43.6c-0.3,0-0.5,0.2-0.5,0.5s0.2,0.5,0.5,0.5s0.5-0.2,0.5-0.5S28.8,43.6,28.5,43.6z"/>
		<path fill="#FFFFFF" d="M28.5,34.7c-0.3,0-0.5,0.2-0.5,0.5s0.2,0.5,0.5,0.5s0.5-0.2,0.5-0.5C29,35,28.8,34.7,28.5,34.7z"/>
		<path fill="#FFFFFF" d="M28.5,37.7c-0.3,0-0.5,0.2-0.5,0.5s0.2,0.5,0.5,0.5s0.5-0.2,0.5-0.5S28.8,37.7,28.5,37.7z"/>
		<path fill="#FFFFFF" d="M28.5,40.6c-0.3,0-0.5,0.2-0.5,0.5s0.2,0.5,0.5,0.5s0.5-0.2,0.5-0.5C29,40.9,28.8,40.6,28.5,40.6z"/>
		<path fill="#FFFFFF" d="M28.2,20.1c-0.1,0.1-0.2,0.2-0.2,0.4s0.1,0.3,0.2,0.4s0.2,0.1,0.3,0.1c0.1,0,0.2-0.1,0.4-0.1
			c0.1-0.1,0.1-0.2,0.1-0.4s0-0.3-0.1-0.4C28.7,20,28.3,20,28.2,20.1z"/>
		<path fill="#FFFFFF" d="M52.2,21c0.3,0,0.5-0.2,0.5-0.5S52.5,20,52.2,20s-0.5,0.2-0.5,0.5S52,21,52.2,21z"/>
		<path fill="#FFFFFF" d="M55.2,21c0.3,0,0.5-0.2,0.5-0.5S55.5,20,55.2,20s-0.5,0.2-0.5,0.5S54.9,21,55.2,21z"/>
		<path fill="#FFFFFF" d="M61.1,21c0.3,0,0.5-0.2,0.5-0.5S61.4,20,61.1,20s-0.5,0.2-0.5,0.5S60.8,21,61.1,21z"/>
		<path fill="#FFFFFF" d="M49.3,21c0.3,0,0.5-0.2,0.5-0.5S49.6,20,49.3,20s-0.5,0.2-0.5,0.5S49,21,49.3,21z"/>
		<path fill="#FFFFFF" d="M58.2,21c0.3,0,0.5-0.2,0.5-0.5S58.5,20,58.2,20s-0.5,0.2-0.5,0.5S57.9,21,58.2,21z"/>
		<path fill="#FFFFFF" d="M34.9,20.5c0-0.3-0.2-0.5-0.5-0.5s-0.5,0.2-0.5,0.5s0.2,0.5,0.5,0.5S34.9,20.8,34.9,20.5z"/>
		<path fill="#FFFFFF" d="M37.9,20.5c0-0.3-0.2-0.5-0.5-0.5s-0.5,0.2-0.5,0.5s0.2,0.5,0.5,0.5S37.9,20.8,37.9,20.5z"/>
		<path fill="#FFFFFF" d="M46.3,21c0.3,0,0.5-0.2,0.5-0.5S46.6,20,46.3,20s-0.5,0.2-0.5,0.5S46,21,46.3,21z"/>
		<path fill="#FFFFFF" d="M32,20.5c0-0.3-0.2-0.5-0.5-0.5S31,20.2,31,20.5s0.2,0.5,0.5,0.5C31.7,21,32,20.8,32,20.5z"/>
		<path fill="#FFFFFF" d="M40.9,20.5c0-0.3-0.2-0.5-0.5-0.5s-0.5,0.2-0.5,0.5s0.2,0.5,0.5,0.5C40.6,21,40.9,20.8,40.9,20.5z"/>
		<path fill="#FFFFFF" d="M43.3,21c0.3,0,0.5-0.2,0.5-0.5S43.6,20,43.3,20s-0.5,0.2-0.5,0.5S43.1,21,43.3,21z"/>
		<path fill="#FFFFFF" d="M64.1,21c0.1,0,0.3-0.1,0.4-0.1c0.1-0.1,0.1-0.2,0.1-0.4c0-0.1,0-0.3-0.1-0.3c-0.2-0.2-0.5-0.2-0.7,0
			c-0.1,0.1-0.2,0.2-0.2,0.4c0,0.1,0.1,0.3,0.2,0.4C63.8,20.9,64,21,64.1,21z"/>
		<path fill="#FFFFFF" d="M64.1,38c-0.3,0-0.5,0.2-0.5,0.5s0.2,0.5,0.5,0.5c0.3,0,0.5-0.2,0.5-0.5C64.6,38.3,64.4,38,64.1,38z"/>
		<path fill="#FFFFFF" d="M64.1,35c-0.3,0-0.5,0.2-0.5,0.5s0.2,0.5,0.5,0.5c0.3,0,0.5-0.2,0.5-0.5S64.4,35,64.1,35z"/>
		<path fill="#FFFFFF" d="M64.1,26c-0.3,0-0.5,0.2-0.5,0.5s0.2,0.5,0.5,0.5c0.3,0,0.5-0.2,0.5-0.5S64.4,26,64.1,26z"/>
		<path fill="#FFFFFF" d="M64.1,23c-0.3,0-0.5,0.2-0.5,0.5s0.2,0.5,0.5,0.5c0.3,0,0.5-0.2,0.5-0.5S64.4,23,64.1,23z"/>
		<path fill="#FFFFFF" d="M64.1,29c-0.3,0-0.5,0.2-0.5,0.5s0.2,0.5,0.5,0.5c0.3,0,0.5-0.2,0.5-0.5S64.4,29,64.1,29z"/>
		<path fill="#FFFFFF" d="M64.1,32c-0.3,0-0.5,0.2-0.5,0.5s0.2,0.5,0.5,0.5c0.3,0,0.5-0.2,0.5-0.5S64.4,32,64.1,32z"/>
	</g>
</g>
</svg>
