<?xml version="1.0" encoding="utf-8"?>
<!-- Generator: Adobe Illustrator 18.1.1, SVG Export Plug-In . SVG Version: 6.00 Build 0)  -->
<svg version="1.1" id="Layer_1" xmlns="http://www.w3.org/2000/svg" xmlns:xlink="http://www.w3.org/1999/xlink" x="0px" y="0px"
	 viewBox="0 0 100 100" enable-background="new 0 0 100 100" xml:space="preserve">
<g id="Layer_5">
	<g>
		<path fill="#FFFFFF" d="M42.5,51.1c0.7,0.7,1.1,2,1,3l-0.8,4.6c-0.1,0.8,0.1,1.2,0.3,1.4c0.4,0.5,1.1,0.5,1.9,0.1L49,58
			c0.8-0.4,2.3-0.4,3.1,0l4.1,2.2c0.3,0.2,0.7,0.3,1,0.3c0.4,0,0.7-0.1,0.9-0.4c0.2-0.2,0.4-0.7,0.3-1.4L57.6,54
			c-0.2-0.9,0.3-2.3,1-3l3.3-3.3c0.7-0.7,0.7-1.3,0.6-1.6c-0.1-0.3-0.4-0.8-1.4-1l-4.6-0.7c-0.9-0.1-2.1-1-2.5-1.8l-2.1-4.2
			c-0.4-0.9-1-1-1.3-1s-0.9,0.1-1.3,1l-2.1,4.2c-0.4,0.9-1.6,1.7-2.5,1.8l-4.6,0.7c-1,0.1-1.3,0.7-1.4,1c-0.1,0.3-0.2,0.9,0.6,1.6
			L42.5,51.1z M39.5,46.5c0-0.1,0.2-0.2,0.6-0.3l4.6-0.7c1.3-0.2,2.7-1.2,3.3-2.4l2.1-4.2c0.3-0.7,0.6-0.6,0.9,0l2.1,4.2
			c0.6,1.2,2,2.2,3.3,2.4l4.6,0.7c0.4,0.1,0.6,0.2,0.6,0.3s0,0.3-0.3,0.6L58,50.4c-0.9,0.9-1.5,2.6-1.2,3.9l0.8,4.6
			c0.1,0.3,0,0.5-0.1,0.6c0,0-0.3,0.1-0.7-0.1l-4.1-2.2c-0.5-0.3-1.3-0.4-2-0.4c-0.8,0-1.5,0.2-2,0.4l-4.1,2.2
			c-0.4,0.2-0.6,0.1-0.7,0.1c-0.1-0.1-0.1-0.3-0.1-0.6l0.8-4.6c0.2-1.3-0.3-3-1.2-3.9l-3.3-3.3C39.6,46.8,39.5,46.6,39.5,46.5z"/>
		<path fill="#FFFFFF" d="M20.5,35c0.1,0,0.3,0,0.3-0.1c0.1-0.1,0.2-0.2,0.2-0.4c0-0.1-0.1-0.3-0.2-0.4c-0.2-0.2-0.5-0.2-0.7,0
			C20,34.2,20,34.4,20,34.5s0,0.3,0.1,0.4C20.2,34.9,20.4,35,20.5,35z"/>
		<path fill="#FFFFFF" d="M20.5,32.2c0.3,0,0.5-0.2,0.5-0.5s-0.2-0.5-0.5-0.5S20,31.4,20,31.7S20.2,32.2,20.5,32.2z"/>
		<path fill="#FFFFFF" d="M20.5,29.4c0.3,0,0.5-0.2,0.5-0.5s-0.2-0.5-0.5-0.5S20,28.6,20,28.9C20,29.2,20.2,29.4,20.5,29.4z"/>
		<path fill="#FFFFFF" d="M20.5,26.6c0.3,0,0.5-0.2,0.5-0.5s-0.2-0.5-0.5-0.5S20,25.8,20,26.1S20.2,26.6,20.5,26.6z"/>
		<path fill="#FFFFFF" d="M20.5,23.8c0.3,0,0.5-0.2,0.5-0.5s-0.2-0.5-0.5-0.5S20,23,20,23.3C20,23.6,20.2,23.8,20.5,23.8z"/>
		<path fill="#FFFFFF" d="M20.5,21c0.1,0,0.3,0,0.4-0.1s0.1-0.2,0.1-0.4c0-0.1-0.1-0.3-0.2-0.4c-0.2-0.2-0.5-0.2-0.7,0
			C20,20.2,20,20.4,20,20.5s0,0.2,0.1,0.4C20.2,20.9,20.4,21,20.5,21z"/>
		<path fill="#FFFFFF" d="M62.5,79H21V37.5c0-0.3-0.2-0.5-0.5-0.5S20,37.2,20,37.5v42c0,0.3,0.2,0.5,0.5,0.5h42
			c0.3,0,0.5-0.2,0.5-0.5S62.8,79,62.5,79z"/>
		<path fill="#FFFFFF" d="M65.1,79.1C65,79.2,65,79.4,65,79.5s0,0.3,0.1,0.4s0.2,0.1,0.4,0.1c0.1,0,0.3,0,0.4-0.1s0.1-0.2,0.1-0.4
			s-0.1-0.2-0.2-0.4C65.7,79,65.3,79,65.1,79.1z"/>
		<path fill="#FFFFFF" d="M76.7,79c-0.3,0-0.5,0.2-0.5,0.5s0.2,0.5,0.5,0.5s0.5-0.2,0.5-0.5S77,79,76.7,79z"/>
		<path fill="#FFFFFF" d="M68.3,79c-0.3,0-0.5,0.2-0.5,0.5S68,80,68.3,80s0.5-0.2,0.5-0.5S68.6,79,68.3,79z"/>
		<path fill="#FFFFFF" d="M73.9,79c-0.3,0-0.5,0.2-0.5,0.5s0.2,0.5,0.5,0.5s0.5-0.2,0.5-0.5S74.2,79,73.9,79z"/>
		<path fill="#FFFFFF" d="M71.1,79c-0.3,0-0.5,0.2-0.5,0.5s0.2,0.5,0.5,0.5s0.5-0.2,0.5-0.5S71.4,79,71.1,79z"/>
		<path fill="#FFFFFF" d="M79.8,79.1c-0.2-0.2-0.5-0.2-0.7,0C79,79.2,79,79.4,79,79.5s0,0.3,0.1,0.4s0.2,0.1,0.4,0.1
			c0.1,0,0.3,0,0.4-0.1s0.1-0.2,0.1-0.4S79.9,79.2,79.8,79.1z"/>
	</g>
</g>
</svg>
