<?xml version="1.0" encoding="utf-8"?>
<!-- Generator: Adobe Illustrator 18.1.1, SVG Export Plug-In . SVG Version: 6.00 Build 0)  -->
<svg version="1.1" id="Layer_1" xmlns="http://www.w3.org/2000/svg" xmlns:xlink="http://www.w3.org/1999/xlink" x="0px" y="0px"
	 viewBox="0 0 100 100" enable-background="new 0 0 100 100" xml:space="preserve">
<g id="Layer_1_1_">
	<g>
		<path fill="#FFFFFF" d="M28,64c-4.4,0-8,3.6-8,8s3.6,8,8,8s8-3.6,8-8S32.4,64,28,64z M28,79c-3.9,0-7-3.1-7-7s3.1-7,7-7s7,3.1,7,7
			S31.9,79,28,79z"/>
		<path fill="#FFFFFF" d="M72,20c-4.4,0-8,3.6-8,8s3.6,8,8,8s8-3.6,8-8S76.4,20,72,20z M72,35c-3.9,0-7-3.1-7-7s3.1-7,7-7s7,3.1,7,7
			S75.9,35,72,35z"/>
		<path fill="#FFFFFF" d="M75.8,27.5h-3.2v-3.2c0-0.3-0.2-0.5-0.5-0.5s-0.5,0.2-0.5,0.5v3.2h-3.2c-0.3,0-0.5,0.2-0.5,0.5
			s0.2,0.5,0.5,0.5h3.2v3.2c0,0.3,0.2,0.5,0.5,0.5s0.5-0.2,0.5-0.5v-3.2h3.2c0.3,0,0.5-0.2,0.5-0.5S76,27.5,75.8,27.5z"/>
		<path fill="#FFFFFF" d="M31.8,71.5h-7.5c-0.3,0-0.5,0.2-0.5,0.5s0.2,0.5,0.5,0.5h7.5c0.3,0,0.5-0.2,0.5-0.5S32,71.5,31.8,71.5z"/>
		<path fill="#FFFFFF" d="M38,61.2c-0.1,0.1-0.2,0.2-0.2,0.3s0.1,0.3,0.2,0.4c0.1,0.1,0.2,0.1,0.3,0.1s0.3,0,0.4-0.1
			c0.1-0.1,0.1-0.2,0.1-0.4c0-0.1,0-0.3-0.1-0.3C38.5,61,38.2,61,38,61.2z"/>
		<path fill="#FFFFFF" d="M44.4,54.9c-0.2,0.2-0.2,0.5,0,0.7c0.1,0.1,0.2,0.2,0.4,0.2c0.1,0,0.2-0.1,0.4-0.1c0.2-0.2,0.2-0.5,0-0.7
			C44.9,54.7,44.5,54.7,44.4,54.9z"/>
		<path fill="#FFFFFF" d="M42.2,57c-0.2,0.2-0.2,0.5,0,0.7c0.1,0.1,0.2,0.1,0.4,0.1c0.1,0,0.2,0,0.3-0.1c0.2-0.2,0.2-0.5,0-0.7
			S42.4,56.8,42.2,57z"/>
		<path fill="#FFFFFF" d="M40.1,59.1c-0.2,0.2-0.2,0.5,0,0.7c0.1,0.1,0.2,0.2,0.4,0.2c0.1,0,0.3-0.1,0.4-0.1c0.2-0.2,0.2-0.5,0-0.7
			C40.6,58.9,40.3,58.9,40.1,59.1z"/>
		<path fill="#FFFFFF" d="M59.2,40.2c-0.2,0.2-0.2,0.5,0,0.7c0.1,0.1,0.2,0.1,0.3,0.1s0.2,0,0.4-0.1c0.2-0.2,0.2-0.5,0-0.7
			S59.4,40,59.2,40.2z"/>
		<path fill="#FFFFFF" d="M54.9,44.4c-0.2,0.2-0.2,0.5,0,0.7c0.1,0.1,0.2,0.1,0.4,0.1c0.1,0,0.3,0,0.4-0.1c0.2-0.2,0.2-0.5,0-0.7
			C55.5,44.2,55.1,44.2,54.9,44.4z"/>
		<path fill="#FFFFFF" d="M52.8,46.5c-0.2,0.2-0.2,0.5,0,0.7c0.1,0.1,0.2,0.1,0.3,0.1s0.3,0,0.4-0.1c0.2-0.2,0.2-0.5,0-0.7
			S53,46.3,52.8,46.5z"/>
		<path fill="#FFFFFF" d="M57.1,42.3c-0.2,0.2-0.2,0.5,0,0.7c0.1,0.1,0.2,0.2,0.3,0.2s0.2-0.1,0.3-0.2c0.2-0.2,0.2-0.5,0-0.7
			C57.6,42.1,57.3,42.1,57.1,42.3z"/>
		<path fill="#FFFFFF" d="M48.6,50.7c-0.2,0.2-0.2,0.5,0,0.7c0.1,0.1,0.2,0.1,0.4,0.1c0.1,0,0.2,0,0.4-0.1c0.2-0.2,0.2-0.5,0-0.7
			C49.1,50.5,48.8,50.5,48.6,50.7z"/>
		<path fill="#FFFFFF" d="M50.7,48.6c-0.2,0.2-0.2,0.5,0,0.7c0.1,0.1,0.2,0.2,0.4,0.2c0.1,0,0.3-0.1,0.4-0.2c0.2-0.2,0.2-0.5,0-0.7
			C51.2,48.4,50.9,48.4,50.7,48.6z"/>
		<path fill="#FFFFFF" d="M46.5,52.8c-0.2,0.2-0.2,0.5,0,0.7c0.1,0.1,0.2,0.1,0.4,0.1c0.1,0,0.2-0.1,0.3-0.1c0.2-0.2,0.2-0.5,0-0.7
			S46.7,52.6,46.5,52.8z"/>
		<path fill="#FFFFFF" d="M61.3,38.1c-0.1,0.1-0.1,0.2-0.1,0.4c0,0.1,0,0.3,0.1,0.3c0.1,0.1,0.2,0.2,0.4,0.2c0.1,0,0.3-0.1,0.3-0.2
			c0.1-0.1,0.2-0.2,0.2-0.3s-0.1-0.3-0.2-0.4C61.8,37.9,61.5,37.9,61.3,38.1z"/>
	</g>
</g>
</svg>
