<?xml version="1.0" encoding="utf-8"?>
<!-- Generator: Adobe Illustrator 18.1.1, SVG Export Plug-In . SVG Version: 6.00 Build 0)  -->
<svg version="1.1" id="Layer_1" xmlns="http://www.w3.org/2000/svg" xmlns:xlink="http://www.w3.org/1999/xlink" x="0px" y="0px"
	 viewBox="0 0 100 100" enable-background="new 0 0 100 100" xml:space="preserve">
<g id="Layer_4">
	<path fill="#FFFFFF" d="M76.8,62.9c-0.3,0-0.7,0.1-1,0.2c-0.3-1.5-1.6-2.6-3.1-2.6h-0.1v-40c0-0.3-0.2-0.5-0.5-0.5H37.2
		c-0.3,0-0.5,0.2-0.5,0.5v21.9c-0.4,0-0.8,0-1.2,0C27,42.5,21,40.3,21,38.3c0-1.4,3.4-3.2,9.7-3.9l-1.6,2.1
		c-0.2,0.2-0.1,0.5,0.1,0.7c0.1,0.1,0.2,0.1,0.3,0.1c0.2,0,0.3-0.1,0.4-0.2l2.3-3c0,0,0,0,0-0.1c0,0,0-0.1,0.1-0.1v-0.1v-0.1l0,0
		l0,0c0,0,0,0,0-0.1v-0.1l0,0l-0.1-0.1l0,0l-3-2.3c-0.2-0.2-0.5-0.1-0.7,0.1s-0.1,0.5,0.1,0.7l2,1.5C25.4,34,20,35.5,20,38.3
		c0,3.4,8,5.2,15.5,5.2c0.4,0,0.8,0,1.2,0v36.1c0,0.3,0.2,0.5,0.5,0.5h25.9l0,0l0,0l0,0c0.1,0,0.2,0,0.2-0.1l0,0l0,0
		c0,0,0.1,0,0.1-0.1c0,0,0,0,0.1-0.1v-0.1v-0.1c0,0,0,0,0-0.1l0,0v-0.1v-0.1l0,0l-7.7-13c-0.6-1-0.3-2.4,0.8-3c1-0.6,2.4-0.3,3,0.8
		l1.9,3.1c0.1,0.2,0.3,0.3,0.6,0.2c0.2-0.1,0.4-0.3,0.4-0.5V54c0-1.2,1-2.2,2.2-2.2c1.2,0,2.2,1,2.2,2.2v5.7v8.9
		c0,0.3,0.2,0.5,0.5,0.5s0.5-0.2,0.5-0.5V60c0.3-0.1,0.6-0.2,0.9-0.2c1,0,1.9,0.7,2.1,1.7v7.1c0,0.3,0.2,0.5,0.5,0.5
		s0.5-0.2,0.5-0.5v-6.9c0,0,0.1,0,0.1-0.1c0.1,0,0.1,0.1,0.2,0.1c0.2,0,0.3-0.1,0.4-0.2c0.1,0,0.1,0,0.2,0c1.2,0,2.2,1,2.2,2.2v0.2
		v4.8c0,0.3,0.2,0.5,0.5,0.5S76,69,76,68.7v-4.4c0.3-0.1,0.6-0.2,0.9-0.2c1.2,0,2.2,1,2.2,2.1L77,79.6c0,0.3,0.1,0.5,0.4,0.6
		c0.3,0,0.5-0.1,0.6-0.4l2-13.7C80,64.3,78.6,62.9,76.8,62.9z M68.7,58.8c-0.3,0-0.6,0-0.9,0.1V54c0-1.8-1.4-3.2-3.2-3.2
		c-1.8,0-3.2,1.4-3.2,3.2v11l-0.9-1.6c-0.9-1.5-2.8-2-4.3-1.1s-2,2.8-1.1,4.3L62.3,79H37.7V43.4c6.5-0.3,13.4-2,13.4-5.1
		c0-0.3-0.2-0.5-0.5-0.5s-0.5,0.2-0.5,0.5c0,1.7-4.7,3.8-12.4,4.1V21h33.9v39.6h-0.1C71.1,59.5,69.9,58.8,68.7,58.8z"/>
</g>
</svg>
