<?xml version="1.0" encoding="utf-8"?>
<!-- Generator: Adobe Illustrator 17.1.0, SVG Export Plug-In . SVG Version: 6.00 Build 0)  -->
<!DOCTYPE svg PUBLIC "-//W3C//DTD SVG 1.1//EN" "http://www.w3.org/Graphics/SVG/1.1/DTD/svg11.dtd">
<svg version="1.1" id="Layer_1" xmlns="http://www.w3.org/2000/svg" xmlns:xlink="http://www.w3.org/1999/xlink" x="0px" y="0px"
	 viewBox="0 0 460.7 184.4" enable-background="new 0 0 460.7 184.4" xml:space="preserve">
<g>
	<path fill="#FFFFFF" d="M233.8,0.1L233.8,0.1l-2.4,0h-0.1h-2.4v0c-13.4,0.4-23.4,3.8-29.8,10.3c-5.1,5.2-6.4,10.8-6.8,13.5h0v0.3
		c-0.1,0.7-0.1,1.2-0.1,1.3v132h0.1v1.4c0,0.3,0,8.2,6.9,15.1c6.4,6.5,16.4,9.9,29.7,10.3v0h2.5h2.5v0c13.3-0.4,23.3-3.8,29.7-10.3
		c5.9-5.9,6.7-12.5,6.9-14.5h0v-0.6v-130v-3.4c0-0.3,0-8.2-6.9-15.1C257.2,3.9,247.2,0.4,233.8,0.1z M265.5,28.9v130.1
		c0,0.1,0,6.1-5.4,11.5c-5.8,5.9-15.5,8.8-28.7,8.8c-33.6,0-34.1-19.6-34.1-20.4V24.4c0.5-4.2,4.5-19.3,34-19.3h0.1
		c33.6,0,34.1,19.6,34.1,20.4V28.9z"/>
	<path fill="#FFFFFF" d="M166.6,10.4c-6.4-6.5-16.4-9.9-29.8-10.3v0h-2.4h-0.1h-2.4v0c-13.4,0.4-23.4,3.8-29.8,10.3
		c-6.9,6.9-6.9,14.8-6.9,15.1v133h0l0,0.5c0,0.3,0,8.2,6.9,15.1c2,2.1,4.4,3.8,7.2,5.2H41.7h-2.5c-33.6,0-34.1-19.6-34.1-20.4V0h-5
		v0.1H0v158.4h0.1v0.4c0,0.3,0,8.2,6.9,15.1c6,6,15,9.4,27,10.2v0.2h5.2h2.5h89.1c1.2,0,2.4,0.1,3.6,0.1h2.5v-0.1h0.7v-0.1
		c13.1-0.5,22.9-3.9,29.2-10.3c5.1-5.2,6.4-10.8,6.8-13.5h0v-0.3c0.1-0.7,0.1-1.2,0.1-1.3v-134h-0.1
		C173.4,22.9,172.5,16.3,166.6,10.4z M168.5,159.9c-0.2,1.9-1.3,6.4-5.4,10.5c-5.8,5.9-15.5,8.8-28.7,8.8H132h-1.2
		c-30.1-1.3-30.6-19.5-30.6-20.3l0-2.5l0,0V25.4c0-0.8,0.5-20.4,34.1-20.4h0.1c33.6,0,34.1,19.6,34.1,20.4V159.9z"/>
	<path fill="#FFFFFF" d="M460.7,24.9c-0.1-2-1-8.6-6.9-14.5c-6.4-6.5-16.4-9.9-29.8-10.3v0h-2.4h-0.1h-2.4v0
		c-13.4,0.4-23.4,3.8-29.8,10.3c-6.3,6.4-6.8,13.5-6.9,14.9L374.5,77l-7.9-51.8c0-1.4-0.6-8.5-6.9-14.9c-6.4-6.5-16.4-9.9-29.8-10.3
		v0h-2.4h-0.1h-2.4v0c-13.4,0.4-23.4,3.8-29.8,10.3c-5.9,5.9-6.7,12.5-6.9,14.5h0v0.6V160v24.3h5V160V25.4c0-0.8,0.5-20.4,34.1-20.4
		h0.1c33.6,0,34.1,19.6,34.1,20.4l0,0.2l10.2,67.6l-18,91.1H373h3h19.1l-18-91.1l10.2-67.6l0-0.2c0-0.8,0.5-20.4,34.1-20.4h0.1
		c33.6,0,34.1,19.6,34.1,20.4V160v24.3h5V160V25.4L460.7,24.9L460.7,24.9z M389.1,179.3h-13h-3h-13l13-65.9l1.5-7l1.5,7L389.1,179.3
		z"/>
</g>
</svg>
