<?xml version="1.0" encoding="utf-8"?>
<!-- Generator: Adobe Illustrator 18.1.1, SVG Export Plug-In . SVG Version: 6.00 Build 0)  -->
<!DOCTYPE svg PUBLIC "-//W3C//DTD SVG 1.1//EN" "http://www.w3.org/Graphics/SVG/1.1/DTD/svg11.dtd">
<svg version="1.1" id="Layer_1" xmlns="http://www.w3.org/2000/svg" xmlns:xlink="http://www.w3.org/1999/xlink" x="0px" y="0px"
	 viewBox="0 0 843.4 190.2" enable-background="new 0 0 843.4 190.2" xml:space="preserve">
<g>
	<path fill="none" stroke="#666766" stroke-miterlimit="10" d="M421.8,31.3C562.3,21,702.8,10.8,843.3,0.5"/>
	<path fill="none" stroke="#666766" stroke-miterlimit="10" d="M421.8,37.2c140.5-11.5,281-23,421.5-34.5"/>
	<path fill="none" stroke="#666766" stroke-miterlimit="10" d="M421.8,43c140.5-12.7,281-25.4,421.5-38.1"/>
	<path fill="none" stroke="#666766" stroke-miterlimit="10" d="M421.8,48.9C562.3,35,702.8,21.1,843.3,7.2"/>
	<path fill="none" stroke="#666766" stroke-miterlimit="10" d="M421.8,54.8c140.5-15.1,281-30.2,421.5-45.4"/>
	<path fill="none" stroke="#666766" stroke-miterlimit="10" d="M421.8,60.6c140.5-16.3,281-32.7,421.5-49"/>
	<path fill="none" stroke="#666766" stroke-miterlimit="10" d="M421.8,66.5c140.5-17.6,281-35.1,421.5-52.7"/>
	<path fill="none" stroke="#666766" stroke-miterlimit="10" d="M421.8,72.4c140.5-18.8,281-37.5,421.5-56.3"/>
	<path fill="none" stroke="#666766" stroke-miterlimit="10" d="M421.8,78.2c140.5-20,281-40,421.5-59.9"/>
	<path fill="none" stroke="#666766" stroke-miterlimit="10" d="M421.8,84.1c140.5-21.2,281-42.4,421.5-63.6"/>
	<path fill="none" stroke="#666766" stroke-miterlimit="10" d="M421.8,89.9c140.5-22.4,281-44.8,421.5-67.2"/>
	<path fill="none" stroke="#666766" stroke-miterlimit="10" d="M421.8,95.8c140.5-23.6,281-47.2,421.5-70.8"/>
	<path fill="none" stroke="#666766" stroke-miterlimit="10" d="M421.8,101.7c140.5-24.8,281-49.7,421.5-74.5"/>
	<path fill="none" stroke="#666766" stroke-miterlimit="10" d="M421.8,107.5c140.5-26,281-52.1,421.5-78.1"/>
	<path fill="none" stroke="#666766" stroke-miterlimit="10" d="M421.8,113.4c140.5-27.3,281-54.5,421.5-81.8"/>
	<path fill="none" stroke="#666766" stroke-miterlimit="10" d="M421.8,119.3c140.5-28.5,281-56.9,421.5-85.4"/>
	<path fill="none" stroke="#666766" stroke-miterlimit="10" d="M421.8,125.1c140.5-29.7,281-59.4,421.5-89"/>
	<path fill="none" stroke="#666766" stroke-miterlimit="10" d="M421.8,131c140.5-30.9,281-61.8,421.5-92.7"/>
	<path fill="none" stroke="#666766" stroke-miterlimit="10" d="M421.8,136.8c140.5-32.1,281-64.2,421.5-96.3"/>
	<path fill="none" stroke="#666766" stroke-miterlimit="10" d="M421.8,142.7c140.5-33.3,281-66.6,421.5-100"/>
	<path fill="none" stroke="#666766" stroke-miterlimit="10" d="M421.8,148.6C562.3,114,702.8,79.5,843.3,45"/>
	<path fill="none" stroke="#666766" stroke-miterlimit="10" d="M421.8,154.4c140.5-35.7,281-71.5,421.5-107.2"/>
	<path fill="none" stroke="#666766" stroke-miterlimit="10" d="M421.8,160.3c140.5-37,281-73.9,421.5-110.9"/>
	<path fill="none" stroke="#666766" stroke-miterlimit="10" d="M421.8,166.2c140.5-38.2,281-76.3,421.5-114.5"/>
	<path fill="none" stroke="#666766" stroke-miterlimit="10" d="M421.8,172c140.5-39.4,281-78.8,421.5-118.2"/>
	<path fill="none" stroke="#666766" stroke-miterlimit="10" d="M421.8,177.9c140.5-40.6,281-81.2,421.5-121.8"/>
	<path fill="none" stroke="#666766" stroke-miterlimit="10" d="M421.8,183.7c140.5-41.8,281-83.6,421.5-125.4"/>
	<path fill="none" stroke="#666766" stroke-miterlimit="10" d="M421.8,189.6c140.5-43,281-86,421.5-129.1"/>
</g>
<g>
	<path fill="none" stroke="#8E8E8E" stroke-miterlimit="10" d="M421.6,189.7c-140.5-43-281-86-421.5-129.1"/>
	<path fill="none" stroke="#8E8E8E" stroke-miterlimit="10" d="M421.6,183.8C281.1,142,140.6,100.2,0.1,58.4"/>
	<path fill="none" stroke="#8E8E8E" stroke-miterlimit="10" d="M421.6,178C281.1,137.4,140.6,96.8,0.1,56.2"/>
	<path fill="none" stroke="#8E8E8E" stroke-miterlimit="10" d="M421.6,172.1C281.1,132.7,140.6,93.3,0.1,53.9"/>
	<path fill="none" stroke="#8E8E8E" stroke-miterlimit="10" d="M421.6,166.2C281.1,128.1,140.6,89.9,0.1,51.7"/>
	<path fill="none" stroke="#8E8E8E" stroke-miterlimit="10" d="M421.6,160.4c-140.5-37-281-73.9-421.5-110.9"/>
	<path fill="none" stroke="#8E8E8E" stroke-miterlimit="10" d="M421.6,154.5C281.1,118.8,140.6,83,0.1,47.3"/>
	<path fill="none" stroke="#8E8E8E" stroke-miterlimit="10" d="M421.6,148.6C281.1,114.1,140.6,79.6,0.1,45.1"/>
	<path fill="none" stroke="#8E8E8E" stroke-miterlimit="10" d="M421.6,142.8c-140.5-33.3-281-66.6-421.5-100"/>
	<path fill="none" stroke="#8E8E8E" stroke-miterlimit="10" d="M421.6,136.9c-140.5-32.1-281-64.2-421.5-96.3"/>
	<path fill="none" stroke="#8E8E8E" stroke-miterlimit="10" d="M421.6,131.1c-140.5-30.9-281-61.8-421.5-92.7"/>
	<path fill="none" stroke="#8E8E8E" stroke-miterlimit="10" d="M421.6,125.2c-140.5-29.7-281-59.4-421.5-89"/>
	<path fill="none" stroke="#8E8E8E" stroke-miterlimit="10" d="M421.6,119.3C281.1,90.9,140.6,62.4,0.1,33.9"/>
	<path fill="none" stroke="#8E8E8E" stroke-miterlimit="10" d="M421.6,113.5C281.1,86.2,140.6,59,0.1,31.7"/>
	<path fill="none" stroke="#8E8E8E" stroke-miterlimit="10" d="M421.6,107.6c-140.5-26-281-52.1-421.5-78.1"/>
	<path fill="none" stroke="#8E8E8E" stroke-miterlimit="10" d="M421.6,101.7C281.1,76.9,140.6,52.1,0.1,27.3"/>
	<path fill="none" stroke="#8E8E8E" stroke-miterlimit="10" d="M421.6,95.9C281.1,72.3,140.6,48.7,0.1,25"/>
	<path fill="none" stroke="#8E8E8E" stroke-miterlimit="10" d="M421.6,90C281.1,67.6,140.6,45.2,0.1,22.8"/>
	<path fill="none" stroke="#8E8E8E" stroke-miterlimit="10" d="M421.6,84.2C281.1,63,140.6,41.8,0.1,20.6"/>
	<path fill="none" stroke="#8E8E8E" stroke-miterlimit="10" d="M421.6,78.3c-140.5-20-281-40-421.5-59.9"/>
	<path fill="none" stroke="#8E8E8E" stroke-miterlimit="10" d="M421.6,72.4C281.1,53.7,140.6,34.9,0.1,16.1"/>
	<path fill="none" stroke="#8E8E8E" stroke-miterlimit="10" d="M421.6,66.6C281.1,49,140.6,31.5,0.1,13.9"/>
	<path fill="none" stroke="#8E8E8E" stroke-miterlimit="10" d="M421.6,60.7C281.1,44.4,140.6,28,0.1,11.7"/>
	<path fill="none" stroke="#8E8E8E" stroke-miterlimit="10" d="M421.6,54.8C281.1,39.7,140.6,24.6,0.1,9.5"/>
	<path fill="none" stroke="#8E8E8E" stroke-miterlimit="10" d="M421.6,49C281.1,35.1,140.6,21.2,0.1,7.2"/>
	<path fill="none" stroke="#8E8E8E" stroke-miterlimit="10" d="M421.6,43.1C281.1,30.4,140.6,17.7,0.1,5"/>
	<path fill="none" stroke="#8E8E8E" stroke-miterlimit="10" d="M421.6,37.3c-140.5-11.5-281-23-421.5-34.5"/>
	<path fill="none" stroke="#8E8E8E" stroke-miterlimit="10" d="M421.6,31.4C281.1,21.1,140.6,10.8,0.1,0.6"/>
</g>
</svg>
