<?xml version="1.0" encoding="utf-8"?>
<!-- Generator: Adobe Illustrator 18.1.1, SVG Export Plug-In . SVG Version: 6.00 Build 0)  -->
<svg version="1.1" xmlns="http://www.w3.org/2000/svg" xmlns:xlink="http://www.w3.org/1999/xlink" x="0px" y="0px"
   viewBox="0 0 100 100" enable-background="new 0 0 100 100" xml:space="preserve">
<g class="full">
  <path fill="#77787C" d="M50,0C31.6,0,16.7,14.7,16.7,32.8S48.6,100,50,100c0.2,0,33.3-49.1,33.3-67.2S68.4,0,50,0z M50,42.1
    c-4.3,0-7.7-3.4-7.7-7.6S45.7,27,50,27c4.3,0,7.7,3.4,7.7,7.6S54.3,42.1,50,42.1z"/>
</g>
<g class="outline">
  <g>
    <path fill="#77787C" d="M50,4.2c16.1,0,29.2,12.8,29.2,28.6C79.2,46,58,80.4,49.8,92.9C41.7,81,20.8,46.3,20.8,32.8
      C20.8,17,33.9,4.2,50,4.2 M50,0C31.6,0,16.7,14.7,16.7,32.8S48.6,100,50,100c0.2,0,33.3-49.1,33.3-67.2S68.4,0,50,0L50,0z"/>
  </g>
  <g>
    <path fill="#77787C" d="M50,45.8c-6.3,0-11.4-5.1-11.4-11.3c0-6.2,5.1-11.3,11.4-11.3s11.4,5.1,11.4,11.3
      C61.4,40.8,56.3,45.8,50,45.8z M50,27.3c-4.1,0-7.4,3.3-7.4,7.3s3.3,7.3,7.4,7.3c4.1,0,7.4-3.3,7.4-7.3S54.1,27.3,50,27.3z"/>
  </g>
</g>
</svg>
