<?xml version="1.0" encoding="utf-8"?>
<!DOCTYPE svg PUBLIC "-//W3C//DTD SVG 1.1//EN" "http://www.w3.org/Graphics/SVG/1.1/DTD/svg11.dtd">
<svg version="1.1" id="Layer_1" xmlns="http://www.w3.org/2000/svg" xmlns:xlink="http://www.w3.org/1999/xlink" x="0px" y="0px"
	 viewBox="0 0 24 24" enable-background="new 0 0 24 24" xml:space="preserve">
<g class="background">
  <path fill="#626366" d="M12,0C5.4,0,0,5.4,0,12c0,6.6,5.4,12,12,12s12-5.4,12-12C24,5.4,18.6,0,12,0z M12,2.1c0.6,0,1,0.4,1,1
    s-0.4,1-1,1s-1-0.4-1-1S11.4,2.1,12,2.1z M3.3,12.8c-0.6,0-1-0.4-1-1c0-0.6,0.4-1,1-1c0.6,0,1,0.4,1,1C4.3,12.3,3.9,12.8,3.3,12.8z
     M6.6,18.6c-0.4,0.4-1,0.4-1.4,0c-0.4-0.4-0.4-1,0-1.4c0.4-0.4,1-0.4,1.4,0S7,18.2,6.6,18.6z M6.6,6.3c-0.4,0.4-1,0.4-1.4,0
    c-0.4-0.4-0.4-1,0-1.4c0.4-0.4,1-0.4,1.4,0C7,5.3,7,5.9,6.6,6.3z M12,21.4c-0.6,0-1-0.4-1-1c0-0.6,0.4-1,1-1s1,0.4,1,1
    C13,21,12.6,21.4,12,21.4z M18.5,18.2c-0.1,0.1-0.2,0.2-0.4,0.2c-0.1,0-0.2,0-0.3-0.1l-6.1-5.9c-0.1-0.1-0.2-0.2-0.2-0.4V6.6
    c0-0.3,0.2-0.5,0.5-0.5s0.5,0.2,0.5,0.5v5.2l6,5.7C18.7,17.7,18.7,18,18.5,18.2z M18.8,6.3c-0.4,0.4-1,0.4-1.4,0
    c-0.4-0.4-0.4-1,0-1.4c0.4-0.4,1-0.4,1.4,0C19.2,5.3,19.2,5.9,18.8,6.3z M20.7,12.8c-0.6,0-1-0.4-1-1c0-0.6,0.4-1,1-1s1,0.4,1,1
    C21.7,12.3,21.2,12.8,20.7,12.8z"/>
</g>
<g class="elements">
  <path fill="#626366" d="M12,0C5.4,0,0,5.4,0,12c0,6.6,5.4,12,12,12c6.6,0,12-5.4,12-12C24,5.4,18.6,0,12,0z M12,23
    C5.9,23,1,18.1,1,12C1,5.9,5.9,1,12,1c6.1,0,11,4.9,11,11C23,18.1,18.1,23,12,23z"/>
  <path fill="#626366" d="M12.5,11.8V6.6c0-0.3-0.2-0.5-0.5-0.5c-0.3,0-0.5,0.2-0.5,0.5V12c0,0.1,0.1,0.3,0.2,0.4l6.1,5.9
    c0.1,0.1,0.2,0.1,0.3,0.1c0.1,0,0.3-0.1,0.4-0.2c0.2-0.2,0.2-0.5,0-0.7L12.5,11.8z"/>
  <circle fill="#626366" cx="12" cy="3.1" r="1"/>
  <circle fill="#626366" cx="12" cy="20.4" r="1"/>
  <circle fill="#626366" cx="3.3" cy="11.8" r="1"/>
  <circle fill="#626366" cx="20.7" cy="11.8" r="1"/>
  <circle fill="#626366" cx="5.9" cy="5.6" r="1"/>
  <circle fill="#626366" cx="5.9" cy="17.9" r="1"/>
  <circle fill="#626366" cx="18.1" cy="5.6" r="1"/>
</g>
</svg>


