<?xml version="1.0" encoding="utf-8"?>
<svg version="1.1" id="Layer1" xmlns="http://www.w3.org/2000/svg" xmlns:xlink="http://www.w3.org/1999/xlink" x="0px" y="0px"
	 viewBox="-12 88 24 24" enable-background="new -12 88 24 24" xml:space="preserve">
<g class="background">
	<circle fill="#626366" stroke="#626366" cx="0" cy="100" r="11.5"/>
</g>
<g class="elements">
  <circle fill="#FFFFFF" cx="0" cy="105.5" r="1"/>
  <path fill="#FFFFFF" d="M0,103.5c-0.3,0-0.5-0.2-0.5-0.5v-3c0-0.3,0.2-0.5,0.5-0.5c1.4,0,2.4-1.1,2.4-2.4s-1-2.4-2.4-2.4
    s-2.4,1-2.4,2.4c0,0.3-0.2,0.5-0.5,0.5s-0.5-0.2-0.5-0.5c0-1.9,1.6-3.5,3.5-3.5s3.5,1.6,3.5,3.5c0,1.7-1.3,3.2-2.9,3.5v2.6
    C0.5,103.3,0.2,103.5,0,103.5z"/>
</g>
</svg>
