<?xml version="1.0" encoding="utf-8"?>
<svg version="1.1" xmlns="http://www.w3.org/2000/svg" xmlns:xlink="http://www.w3.org/1999/xlink" x="0px" y="0px"
	 viewBox="-12 88 24 24" enable-background="new -12 88 24 24" xml:space="preserve">
<g class="elements">
	<path fill="#76777B" d="M6.7,111.5c-0.3,0-0.6-0.1-1-0.3l-4.1-2.2c-0.8-0.4-2.3-0.4-3.1,0l-4.1,2.2c-0.8,0.4-1.5,0.3-1.9-0.1
		c-0.2-0.2-0.4-0.7-0.3-1.4l0.8-4.6c0.2-0.9-0.3-2.3-1-3l-3.3-3.3c-0.7-0.7-0.7-1.3-0.6-1.6c0.1-0.3,0.4-0.8,1.4-1l4.6-0.7
		c0.9-0.1,2.1-1,2.5-1.8l2.1-4.2c0.4-0.9,1-1,1.3-1s0.9,0.1,1.3,1l2.1,4.2c0.4,0.9,1.6,1.7,2.5,1.8l4.6,0.7c1,0.1,1.3,0.7,1.4,1
		c0.1,0.3,0.2,0.9-0.6,1.6L8,102.1c-0.7,0.7-1.1,2-1,3l0.8,4.6c0.1,0.8-0.1,1.2-0.3,1.4C7.4,111.4,7,111.5,6.7,111.5z"/>
</g>
<g class="background">
	<path fill="#76777B" d="M6.7,111.5c-0.3,0-0.6-0.1-1-0.3l-4.1-2.2c-0.8-0.4-2.3-0.4-3.1,0l-4.1,2.2c-0.8,0.4-1.5,0.3-1.9-0.1
		c-0.2-0.2-0.4-0.7-0.3-1.4l0.8-4.6c0.2-0.9-0.3-2.3-1-3l-3.3-3.3c-0.7-0.7-0.7-1.3-0.6-1.6c0.1-0.3,0.4-0.8,1.4-1l4.6-0.7
		c0.9-0.1,2.1-1,2.5-1.8l2.1-4.2c0.4-0.9,1-1,1.3-1s0.9,0.1,1.3,1l2.1,4.2c0.4,0.9,1.6,1.7,2.5,1.8l4.6,0.7c1,0.1,1.3,0.7,1.4,1
		c0.1,0.3,0.2,0.9-0.6,1.6L8,102.1c-0.7,0.7-1.1,2-1,3l0.8,4.6c0.1,0.8-0.1,1.2-0.3,1.4C7.4,111.4,7,111.5,6.7,111.5z M0,107.7
		c0.8,0,1.5,0.2,2,0.4l4.1,2.2c0.4,0.2,0.6,0.1,0.7,0.1c0.1-0.1,0.1-0.3,0.1-0.6l-0.8-4.6c-0.2-1.3,0.3-3,1.2-3.9l3.3-3.3
		c0.3-0.3,0.3-0.5,0.3-0.6c0-0.1-0.2-0.2-0.6-0.3l-4.6-0.7c-1.3-0.2-2.7-1.2-3.3-2.4L0.4,90c-0.3-0.6-0.6-0.6-0.9,0l-2.1,4.2
		c-0.6,1.2-2,2.2-3.3,2.4l-4.6,0.7c-0.4,0.1-0.6,0.2-0.6,0.3c0,0.1,0,0.3,0.3,0.6l3.3,3.3c0.9,0.9,1.5,2.6,1.2,3.9l-0.8,4.6
		c-0.1,0.3,0,0.5,0.1,0.6c0,0,0.3,0.1,0.7-0.1l4.1-2.2C-1.5,107.9-0.8,107.7,0,107.7z"/>
</g>
</svg>
