<?xml version="1.0" encoding="utf-8"?>
<!DOCTYPE svg PUBLIC "-//W3C//DTD SVG 1.1//EN" "http://www.w3.org/Graphics/SVG/1.1/DTD/svg11.dtd">
<svg version="1.1" id="Layer_1" xmlns="http://www.w3.org/2000/svg" xmlns:xlink="http://www.w3.org/1999/xlink" x="0px" y="0px"
  viewBox="0 0 100 100" enable-background="new 0 0 100 100" xml:space="preserve">
<g class="background">
  <path fill="#626466" d="M53.844,51.473c0.515-0.452,1.051-0.883,1.594-1.3L44.909,39.646c-0.4,0.561-0.815,1.108-1.259,1.634
    c-0.439,0.521-0.895,1.032-1.374,1.514L52.33,52.849C52.814,52.368,53.333,51.923,53.844,51.473z"/>
  <path fill="#626466" d="M76.804,34.225l-1.67,9.685c0.691,0.026,1.382,0.04,2.057,0.11c0.687,0.07,1.354,0.194,2.026,0.31
    l1.55-9.007c-0.683-0.118-1.334-0.3-1.993-0.483C78.11,34.651,77.439,34.475,76.804,34.225z"/>
  <path fill="#626466" d="M49.466,25.352l15.758-2.728c-0.248-0.637-0.427-1.304-0.611-1.969c-0.184-0.657-0.363-1.31-0.479-1.993
    l-15.047,2.604c0.116,0.669,0.216,1.342,0.275,2.029C49.422,23.973,49.462,24.657,49.466,25.352z"/>
  <path fill="#626466" d="M70.677,19.606c0.216,0.669,0.467,1.316,0.779,1.939c1.382,2.792,3.635,5.047,6.423,6.441
    c0.623,0.312,1.27,0.565,1.941,0.785c0.647,0.212,1.302,0.403,1.985,0.521c0.795,0.138,1.602,0.246,2.437,0.246
    c7.901,0,14.312-6.407,14.312-14.316c0-7.905-6.411-14.316-14.312-14.316c-7.909,0-14.32,6.411-14.32,14.316
    c0,0.821,0.108,1.614,0.24,2.396C70.281,18.304,70.469,18.957,70.677,19.606z"/>
  <path fill="#626466" d="M78.174,50.369c-0.667-0.116-1.342-0.212-2.029-0.272c-0.679-0.06-1.362-0.102-2.057-0.104
    c-0.024,0-0.048-0.004-0.072-0.004c-5.301,0-10.194,1.697-14.208,4.554c-0.559,0.399-1.11,0.815-1.634,1.258
    c-0.519,0.441-1.03,0.895-1.514,1.378c-4.442,4.442-7.19,10.577-7.19,17.352c0,13.557,10.993,24.542,24.546,24.542
    c13.549,0,24.538-10.984,24.538-24.542C98.554,62.4,89.738,52.348,78.174,50.369z"/>
  <path fill="#626466" d="M43.335,25.448c0-0.373-0.088-0.723-0.112-1.09c-0.04-0.689-0.088-1.374-0.204-2.041
    C41.525,13.65,34.024,7.041,24.933,7.041c-10.166,0-18.41,8.24-18.41,18.406c0,10.17,8.244,18.406,18.41,18.406
    c5.081,0,9.683-2.059,13.014-5.391c0.483-0.483,0.879-1.048,1.306-1.584c0.431-0.541,0.854-1.078,1.226-1.666
    c1.618-2.572,2.584-5.564,2.756-8.786C43.255,26.097,43.335,25.783,43.335,25.448z"/>
  <circle fill="#626466" cx="18.486" cy="76.884" r="18.099"/>
</g>
<g class="elements">
 <path fill="#626466" d="M53.841,51.434c0.515-0.451,1.05-0.878,1.593-1.297L44.912,39.615c-0.399,0.563-0.815,1.11-1.258,1.632
    c-0.439,0.523-0.894,1.034-1.373,1.517l10.046,10.046C52.811,52.328,53.33,51.885,53.841,51.434z"/>
  <path fill="#626466" d="M76.784,34.199l-1.668,9.679c0.691,0.024,1.381,0.04,2.055,0.112c0.687,0.068,1.353,0.192,2.024,0.307
    l1.549-9.001c-0.683-0.12-1.333-0.3-1.992-0.483C78.089,34.626,77.418,34.45,76.784,34.199z"/>
  <path fill="#626466" d="M49.466,25.334l15.747-2.726c-0.248-0.635-0.427-1.301-0.611-1.968c-0.184-0.658-0.363-1.309-0.479-1.992
    L49.087,21.25c0.116,0.667,0.215,1.341,0.275,2.028C49.422,23.956,49.462,24.639,49.466,25.334z"/>
  <path fill="#626466" d="M70.661,19.59c0.215,0.671,0.467,1.317,0.778,1.94c1.385,2.79,3.632,5.045,6.418,6.434
    c0.623,0.311,1.27,0.567,1.94,0.786c0.647,0.212,1.301,0.403,1.984,0.523c0.794,0.136,1.601,0.244,2.435,0.244
    c7.895,0,14.301-6.402,14.301-14.305c0-7.899-6.406-14.305-14.301-14.305c-7.903,0-14.309,6.406-14.309,14.305
    c0,0.822,0.108,1.612,0.24,2.395C70.266,18.289,70.453,18.943,70.661,19.59z M84.216,4.993c5.632,0,10.214,4.582,10.214,10.218
    s-4.582,10.218-10.214,10.218c-0.595,0-1.173-0.076-1.74-0.176c-0.687-0.12-1.349-0.299-1.98-0.551
    c-0.67-0.264-1.313-0.583-1.908-0.974c-1.162-0.77-2.147-1.768-2.914-2.93c-0.391-0.595-0.706-1.237-0.966-1.908
    c-0.247-0.635-0.427-1.297-0.543-1.98c-0.092-0.559-0.172-1.117-0.172-1.7C73.994,9.575,78.58,4.993,84.216,4.993z"/>
  <path fill="#626466" d="M78.153,50.332c-0.667-0.116-1.341-0.212-2.028-0.271c-0.678-0.06-1.361-0.104-2.055-0.104
    c-0.024,0-0.048-0.004-0.072-0.004c-5.297,0-10.186,1.696-14.198,4.55c-0.559,0.399-1.109,0.814-1.632,1.257
    c-0.519,0.443-1.03,0.894-1.513,1.377c-4.438,4.439-7.185,10.57-7.185,17.339C49.47,88.024,60.455,99,73.998,99
    c13.539,0,24.519-10.976,24.519-24.524C98.517,62.355,89.708,52.308,78.153,50.332z M73.998,94.913
    c-11.272,0-20.44-9.169-20.44-20.436c0-5.632,2.291-10.741,5.991-14.445c0.487-0.483,1.054-0.87,1.585-1.305
    c0.531-0.435,1.034-0.902,1.609-1.281c3.061-2.028,6.701-3.217,10.613-3.341c0.219-0.004,0.423-0.064,0.643-0.064
    c0.487,0,0.942,0.112,1.417,0.144c0.686,0.048,1.373,0.092,2.04,0.207c9.619,1.652,16.976,10.003,16.976,20.085
    C94.43,85.744,85.266,94.913,73.998,94.913z"/>
  <path fill="#626466" d="M43.339,25.429c0-0.375-0.088-0.723-0.112-1.09c-0.04-0.69-0.088-1.373-0.204-2.04
    c-1.493-8.662-8.989-15.263-18.073-15.263c-10.158,0-18.397,8.234-18.397,18.393c0,10.162,8.238,18.393,18.397,18.393
    c5.077,0,9.675-2.06,13.004-5.385c0.483-0.487,0.878-1.05,1.305-1.585c0.431-0.539,0.854-1.077,1.225-1.664
    c1.617-2.57,2.582-5.56,2.754-8.777C43.26,26.08,43.339,25.765,43.339,25.429z M39.08,27.13c-0.22,1.816-0.766,3.513-1.601,5.053
    c-0.335,0.619-0.695,1.214-1.114,1.776c-0.411,0.547-0.826,1.098-1.309,1.581c-2.59,2.59-6.163,4.195-10.106,4.195
    c-7.891,0-14.309-6.418-14.309-14.305s6.418-14.305,14.309-14.305c7.053,0,12.892,5.145,14.054,11.871
    c0.116,0.667,0.188,1.345,0.208,2.04c0.004,0.136,0.04,0.26,0.04,0.395C39.252,26.012,39.148,26.567,39.08,27.13z"/>
  <path fill="#626466" d="M18.508,58.742c-9.987,0-18.085,8.098-18.085,18.085c0,9.99,8.099,18.085,18.085,18.085
    c9.987,0,18.085-8.095,18.085-18.085C36.594,66.841,28.495,58.742,18.508,58.742z M18.508,90.826
    c-7.719,0-13.998-6.278-13.998-13.998s6.279-13.998,13.998-13.998c7.72,0,13.998,6.278,13.998,13.998S26.228,90.826,18.508,90.826z
    "/>
</g>
</svg>
